<svg id="Layer_1" data-name="Layer 1" xmlns="http://www.w3.org/2000/svg" viewBox="0 0 314.28 337.38"><defs><style>.cls-1{fill:#f59a24;}.cls-2{fill:#e8322a;}</style></defs><path class="cls-1" d="M665.87,489.63c6.18-22.94,6.68-42.28.21-61.52-8.35-24.86-23.6-44.72-45.28-58.89q-60.62-39.6-124.72-73.43c-41.39-21.86-87.66,6.92-87.75,53.8q-.15,77.07.08,154.12c.16,47.44,46.75,76.53,88.72,54.5,29.77-15.62,58.91-32.61,87.4-50.46,36.56-22.9,38.35-67.76,2.86-92.53-34.46-24.06-71.4-44.44-108.7-64-8.85-4.63-13.36-2.12-13.42,8-.28,46.05-.79,92.09-.72,138.14,0,12.1,7.57,9.61,14.53,5.59,28-16.14,55.75-32.74,84.06-48.33,5.81-3.2,12.13-13.52,20.31-4.1C589.9,458,586.7,473.5,577,480c-14.67,9.9-30,18.87-45.31,27.75-14.93,8.66-30.05,17-45.4,24.95-25.48,13.13-50.93-1.64-51.2-30.17-.47-50-.56-100.09,0-150.12.34-30.16,26.28-45.39,52.74-30.78,37.58,20.75,75.25,41.52,111.51,64.44,60.77,38.41,58.11,114.64-4.26,150.15-29.61,16.86-57.9,36.2-89.06,50.14C446.51,613,384.6,577.5,378.71,512.48c-4.32-47.65-.69-95.6-1.56-143.41C376.94,358,377,347,378.75,336c9.73-61.75,74.63-96.76,129.89-67.62,44.6,23.51,88.75,48.23,130.86,76.1,35.4,23.43,55.18,55.81,50.69,99.68C688.48,460.83,682.35,475.89,665.87,489.63Z" transform="translate(-376.54 -257.92)"/><path class="cls-2" d="M490.44,426.6c0-9.72.13-19.44-.05-29.15-.13-6.87,2.1-9.11,8.58-5.39,17.21,9.92,34.52,19.68,51.73,29.6,5.38,3.11,7.19,6.31.28,10.22-17.28,9.79-34.4,19.87-51.59,29.84-7.05,4.09-9.35,1.53-9.1-6,.33-9.71.08-19.44.08-29.15Z" transform="translate(-376.54 -257.92)"/></svg>