<svg xmlns="http://www.w3.org/2000/svg" xmlns:xlink="http://www.w3.org/1999/xlink" width="228" height="263.423"><style>.B{fill:#fff}.C{fill:#fdc515}.D{fill:#c3c5d4}.E{fill:#7ab24d}.F{fill:#ec6732}.G{fill:#323232}.H{stroke:#f1f1f3}.I{fill-opacity:.1}.J{stroke-miterlimit:10}</style><path d="M194.219 242.091c15.883-3.867 52.148-57.324 22.45-66.104-31.7-9.372-62.188-11.293-93.933-14.359-33.08-3.195-67.69-10.516-100.587.29-4.876 1.602-13.96 2.692-15.702 12.599-.726 4.128 3.786 12.012 3.177 17.665-.883 8.202-7.504 10.015-8.366 18.013-4.831 44.845 43.961 51.404 57.998 48.763 25.785-4.851 46.344-27.88 72.685-23.64 20.058 3.227 42.158 11.671 62.278 6.773z" class="G I"/><path d="M113.426 201.988c-.185 2.35-.461 4.918-2.193 6.573-1.748 1.672-4.434 1.889-6.882 2.014l-10.275.51c-27.709 1.346-55.493 2.323-83.104-.033-.548-.043-.885-.499-.885-.972 0-.261.103-.532.342-.733a.973.973 0 0 0-.076-1.536l-.516-.358a.965.965 0 0 1-.022-1.574l1.248-.923a.967.967 0 0 0 .076-1.498l-1.113-.999a.973.973 0 0 1 .022-1.46l1.373-1.167a.962.962 0 0 0 .005-1.471l-.543-.467a.968.968 0 0 1-.022-1.449l.809-.744a.97.97 0 0 0-.033-1.46 24.08 24.08 0 0 1-.678-.586.966.966 0 0 1-.071-1.389c.244-.266.499-.532.755-.787a.97.97 0 0 0-.011-1.357c-.928-.917-.516-1.916.347-2.736.684-.651 1.65-1.194 2.453-1.498 3.457-1.308 7.691-.434 11.295-.304 8.836.315 17.694.402 26.52-.195l.82-.054c13.987-1.004 28.126-3.745 41.956-2.301h.011c2.052.212 4.093.516 6.122.934 3.751.771 7.659 2.068 9.998 5.015 2.832 3.572 2.62 8.516 2.272 13.005z" class="B"/><path fill="#e3e4e3" d="m112.608 189.364-49.46.302-24.238.214-12.204.106c-3.849.047-7.925-.229-11.722.441-.173.03-.176.324 0 .352 3.808.607 7.873.266 11.722.251l11.674-.089 24.769-.185 49.46-.347c.67.001.671-1.053-.001-1.045zm0 5.427-49.46.302-24.238.214-12.204.106c-3.849.047-7.925-.229-11.722.441-.173.031-.176.324 0 .352 3.808.607 7.873.266 11.722.251l11.674-.089 24.769-.185 49.46-.347c.67.002.671-1.052-.001-1.045zm0 5.428-49.46.302-24.238.214-12.204.106c-3.849.047-7.925-.229-11.722.441-.173.03-.176.324 0 .352 3.808.607 7.873.266 11.722.251l11.674-.089 24.769-.185 49.46-.347c.67.002.671-1.052-.001-1.045zm0 5.428-49.46.302-24.238.214-12.204.106c-3.849.047-7.925-.229-11.722.441-.173.031-.176.324 0 .352 3.808.607 7.873.266 11.722.251l11.674-.089 24.769-.185 49.46-.347c.67.001.671-1.052-.001-1.045z" opacity=".36"/><path fill="#cbcaca" d="m32.383 190.28 13.925.556c14.209.997 28.463 2.288 42.568 4.303 5.852.77 11.179 2.656 11.441 9.458.107 2.78-.654 5.512-1.409 8.19 2.699.443 5.451.886 8.155.475s5.401-1.826 6.662-4.252c.986-1.897.986-4.133.963-6.271l-.088-8.297c-.028-2.626-.108-5.425-1.594-7.59-2.469-3.598-7.57-3.904-11.933-3.85l-88.327 1.105c-1.901.024-4.715.943-2.37 2.653 1.801 1.313 5.031 1.734 7.174 2.13 4.837.893 9.829 1.205 14.833 1.39z" opacity=".42"/><path d="m8.142 217.678.501-8.142 95.654-.455c1.408-.007 3.003-.015 3.909-.492 1.535-.808 2.286-3.522 2.295-8.296.008-4.255-.352-10.113-3.563-11.846-1.493-.806-3.813-.797-5.868-.793l-92.041.263-.568-8.142 92.584-.263c2.729-.006 6.444-.02 9.759 1.769 7.867 4.245 7.847 14.603 7.838 19.027-.006 3.281-.023 11.997-6.644 15.484-2.667 1.404-5.553 1.419-7.66 1.43l-96.196.456z" class="E"/><path d="M105.285 165.079c-.185 2.35-.461 4.918-2.193 6.573-1.748 1.672-4.434 1.889-6.882 2.014l-10.275.51c-27.709 1.346-55.493 2.323-83.104-.033-.548-.043-.885-.499-.885-.972 0-.261.103-.532.342-.733a.973.973 0 0 0-.076-1.536l-.516-.358a.965.965 0 0 1-.022-1.574l1.248-.923a.967.967 0 0 0 .076-1.498l-1.113-.999a.973.973 0 0 1 .022-1.46l1.373-1.167a.962.962 0 0 0 .005-1.471l-.543-.467a.968.968 0 0 1-.022-1.449l.809-.744a.97.97 0 0 0-.033-1.46 24.08 24.08 0 0 1-.678-.586.966.966 0 0 1-.071-1.389c.244-.266.499-.532.754-.787a.97.97 0 0 0-.011-1.357c-.928-.917-.516-1.916.347-2.735.684-.651 1.65-1.194 2.453-1.498 3.457-1.308 7.691-.434 11.295-.304 8.836.315 17.694.402 26.52-.195l.82-.054c13.987-1.004 28.126-3.745 41.956-2.301h.011c2.052.212 4.092.516 6.122.934 3.751.771 7.659 2.068 9.998 5.015 2.832 3.571 2.62 8.516 2.273 13.004z" class="B"/><g fill="#e3e4e3" opacity=".36"><use xlink:href="#B"/><path d="m104.466 157.883-49.46.302-24.238.214-12.205.106c-3.849.047-7.925-.229-11.722.441-.173.03-.176.324 0 .352 3.808.607 7.873.266 11.722.251l11.674-.089 24.769-.185 49.46-.347c.671.001.672-1.052 0-1.045z"/><use xlink:href="#B" y="10.855"/><use xlink:href="#B" y="16.283"/></g><path fill="#cbcaca" d="m24.242 153.371 13.924.556c14.209.997 28.463 2.288 42.568 4.303 5.852.77 11.179 2.656 11.441 9.458.107 2.78-.654 5.512-1.409 8.19 2.699.443 5.451.886 8.155.475s5.401-1.826 6.662-4.252c.986-1.896.986-4.133.963-6.271l-.088-8.297c-.028-2.626-.108-5.425-1.594-7.59-2.469-3.598-7.57-3.904-11.933-3.85l-88.327 1.105c-1.901.024-4.715.943-2.37 2.653 1.801 1.313 5.031 1.734 7.174 2.13 4.837.893 9.829 1.205 14.834 1.39z" opacity=".42"/><path d="m0 180.769.501-8.142 95.654-.455c1.408-.007 3.003-.015 3.909-.492 1.535-.808 2.286-3.522 2.295-8.296.008-4.255-.352-10.113-3.563-11.846-1.493-.806-3.813-.797-5.868-.793l-92.04.265-.568-8.142 92.584-.263c2.729-.006 6.444-.02 9.759 1.769 7.867 4.245 7.847 14.603 7.838 19.027-.006 3.281-.023 11.997-6.644 15.484-2.667 1.404-5.553 1.419-7.66 1.43L0 180.769z" class="F"/><g fill="#f9b32f"><path d="M32.732 153.252v14.907l-5.923-4.013-5.544 4.013v-14.907z"/><path d="M32.732 153.252v14.907l-5.923-4.014-5.544 4.014v-3.389c2.265-.178 4.421-1.307 6.037-2.89 2.081-2.03 2.781-4.507 3.681-7.173l.556-1.456h1.193z"/></g><path d="M49.004 210.591a4.399 4.399 0 0 1-4.392-4.407v-80.916a4.399 4.399 0 0 1 4.392-4.407h129.747a4.407 4.407 0 0 1 4.406 4.407v80.916a4.407 4.407 0 0 1-4.406 4.407H49.004z" class="G"/><path d="M58.998 131.198h113.495v69.055H58.998zm-7.106 38.217a3.882 3.882 0 0 1-3.885-3.886 3.88 3.88 0 0 1 3.885-3.884 3.885 3.885 0 0 1 0 7.77zm.257 18.261a1.559 1.559 0 0 1-1.554-1.554v-9.07c0-.855.701-1.552 1.554-1.552.862 0 1.554.697 1.554 1.552v9.07c0 .856-.693 1.554-1.554 1.554zm0-31.731a1.554 1.554 0 0 1-1.554-1.553v-9.063c0-.86.701-1.553 1.554-1.553.862 0 1.554.692 1.554 1.553v9.063a1.55 1.55 0 0 1-1.554 1.553z" class="B"/><path fill="#03b4ca" d="M57.956 130.849h114.537v69.404H57.956z"/><path d="M183.075 260.329a2.715 2.715 0 0 1-2.68 2.747l-28.658.347a2.713 2.713 0 0 1-2.746-2.68l-.09-7.386a2.714 2.714 0 0 1 2.68-2.746l28.659-.347a2.711 2.711 0 0 1 2.745 2.679l.09 7.386z" class="F"/><path d="M179.077 250.661c3.733.065 2.991-18.713 3.056-22.838s-1.157-12.393-1.943-12.851-2.122-1.11-3.608.074c-1.128.898.595 6.082-.321 5.755s.393-7.793-1.637-8.775-2.755-.226-4.06.458c-1.173.615-.393 8.251-.393 8.251-1.025-.033-.72-10.216-4.191-10.412-5.632-.319-2.227 10.412-3.209 10.347s-1.506-17.092-1.441-20.824c.052-2.947-1.375-4.388-3.602-4.388s-2.161 3.209-2.227 4.453-.262 23.64-.262 23.64-2.554-3.995-4.715-4.322-3.078.655-3.733 2.161-.14 8.798.524 15.062c.673 6.349 3.396 13.687 7.481 14.21s24.281-.001 24.281-.001zm-77.76-227.56c-.147-2.533-4.168-5.511-5.829-7.152l-.074-.07 2.304-2.886c1.195-1.574 2.35-3.218 2.99-5.088.151-.443.273-.919.167-1.374-.115-.49-.475-.879-.83-1.236-1.659-1.67-5.028-5.444-7.663-5.291-2.533.147-5.511 4.168-7.152 5.829l-.807.843-6.727-4.33c-.826-.479-1.75-.962-2.69-.792-.736.133-1.339.646-1.883 1.158-1.684 1.585-3.288 3.697-2.923 5.98.199 1.243.959 2.315 1.719 3.318l4.024 4.907-4.316 6.706c-.479.826-.962 1.75-.792 2.69.133.736.646 1.339 1.158 1.883 1.585 1.683 3.697 3.288 5.98 2.923 1.243-.199 2.314-.959 3.318-1.719l4.094-3.316 2.942 2.352c1.574 1.195 3.218 2.35 5.088 2.99.443.151.919.273 1.374.167.49-.115.879-.475 1.236-.83 1.671-1.658 5.444-5.027 5.292-7.662z" class="C"/><path fill="#f7a120" d="M72.568 3.263c-1.46 1.509-2.692 3.402-2.368 5.432.199 1.243.959 2.315 1.719 3.318l4.024 4.907-4.316 6.706c-.479.826-.962 1.749-.792 2.69.133.736.646 1.339 1.159 1.883 1.585 1.683 3.697 3.288 5.98 2.923 1.243-.199 2.314-.959 3.318-1.719l4.094-3.316 2.942 2.352c1.574 1.195 3.218 2.35 5.088 2.99.443.151.919.273 1.374.167.49-.115.879-.475 1.236-.83 1.67-1.659 5.443-5.028 5.291-7.663-.006-.101-.028-.203-.045-.305C89.518 20.82 78.59 13.552 72.568 3.263z"/><path d="M33.745 101.235c-2.62.914-5.45 2.707-6.538 3.401-6.927 4.419-13.153 9.909-19.962 14.523-3.645 2.47.187 8.139 3.838 5.665l13.056-8.845c3.718-2.519 7.722-4.543 11.149-7.495 1.298-1.118 3.818-3.094 3.756-5.064-.1-3.134-2.587-3.131-5.299-2.185zm-15.017-.903c-2.086-1.949-5.683-1.556-7.481.557a5.32 5.32 0 0 0 .087 7.019c2.111 2.364 5.903 2.382 7.989-.062.87-1.019 1.351-2.476 1.263-3.813-.097-1.46-.81-2.721-1.858-3.701zm12.508 18.464c-2.086-1.949-5.683-1.557-7.481.557a5.32 5.32 0 0 0 .087 7.019c2.111 2.364 5.903 2.382 7.989-.062.87-1.019 1.351-2.476 1.263-3.813-.096-1.459-.809-2.721-1.858-3.701z" class="E"/><path fill="#699942" d="M20.034 102.047c-1.104 1.856-2.834 3.318-4.927 3.766-1.785.382-3.738-.172-5.134-1.313a5.333 5.333 0 0 0 1.361 3.408c2.111 2.364 5.903 2.382 7.989-.062.87-1.019 1.351-2.476 1.263-3.813a5.105 5.105 0 0 0-.552-1.986zm9.181 20.981c-1.23.67-2.635 1.121-4.023.938-1.063-.14-2.098-.718-2.696-1.586a5.33 5.33 0 0 0 1.347 3.992c2.111 2.364 5.903 2.382 7.989-.062.87-1.019 1.351-2.476 1.263-3.813-.066-.996-.424-1.897-.975-2.682-.384 1.374-1.606 2.505-2.905 3.213zm6.073-14.544c1.298-1.118 3.818-3.094 3.756-5.064a4.253 4.253 0 0 0-.171-1.105c-5.403 3.477-10.774 7.006-15.918 10.852-4.587 3.43-9.33 7.254-15.025 7.863l-.877-1.704-.024-.004c-3.261 2.545.481 7.923 4.055 5.502l13.056-8.845c3.717-2.519 7.721-4.543 11.148-7.495z"/><path d="M218.204 89.325c-1.472-1.311-5.315-.738-7.129-.726l-.079.002-.319-2.851c-.208-1.52-.477-3.058-1.152-4.436-.16-.326-.354-.655-.663-.846-.332-.206-.744-.222-1.134-.223-1.829-.006-5.751-.228-7.114 1.303-1.311 1.472-.737 5.315-.726 7.129l.02.907-6.073 1.316c-.717.191-1.489.432-1.912 1.042-.331.477-.381 1.09-.398 1.67-.054 1.795.224 3.836 1.679 4.89.792.574 1.798.745 2.766.878l4.905.485 1.313 6.053c.191.717.433 1.489 1.042 1.912.477.331 1.09.381 1.67.398 1.795.054 3.836-.224 4.89-1.679.574-.792.745-1.798.878-2.766l.427-4.069 2.907-.324c1.52-.208 3.058-.477 4.436-1.152.326-.16.655-.354.846-.663.206-.332.222-.744.223-1.134.006-1.831.228-5.753-1.303-7.116z" class="F"/><path fill="#bd361b" d="M219.284 97.574a1.13 1.13 0 0 0 .098-.212l-2.415-.208c-4.782-.391-9.624-.255-14.334-1.167-3.66-.708-7.321-2.161-10.061-4.619-.255.146-.481.33-.65.573-.331.477-.381 1.09-.398 1.67-.054 1.795.224 3.836 1.679 4.89.792.574 1.798.745 2.766.878 1.628.224 3.265.382 4.905.485a68.659 68.659 0 0 0 1.313 6.053c.19.717.433 1.489 1.042 1.912.477.331 1.09.381 1.67.398 1.795.054 3.836-.224 4.89-1.679.574-.792.745-1.798.878-2.766.186-1.351.325-2.709.427-4.069a65.888 65.888 0 0 0 2.907-.324c1.52-.208 3.058-.477 4.436-1.152.327-.16.656-.355.847-.663z"/><path d="M107.976 91.348h54.218a6.866 6.866 0 0 0 6.866-6.866V44.39a6.866 6.866 0 0 0-6.866-6.866h-54.218a6.866 6.866 0 0 0-6.866 6.866v40.092a6.866 6.866 0 0 0 6.866 6.866z" class="G I"/><path d="M117.92 87.58h54.218a6.866 6.866 0 0 0 6.866-6.866V40.621a6.866 6.866 0 0 0-6.866-6.866H117.92a6.866 6.866 0 0 0-6.866 6.866v40.092a6.867 6.867 0 0 0 6.866 6.867zm-.671-58.921h54.633a6.196 6.196 0 0 0 0-12.39h-54.633a6.195 6.195 0 1 0 0 12.39z" class="B H J"/><circle cx="118.758" cy="22.464" r="2.774" class="F"/><circle cx="129.811" cy="22.464" r="2.774" class="C"/><circle cx="140.864" cy="22.464" r="2.774" class="E"/><path d="M169.904 45.793h-50.678a1.178 1.178 0 0 1 0-2.356h50.678a1.178 1.178 0 0 1 0 2.356zm-22.259 6.15h-28.419a1.178 1.178 0 0 1 0-2.356h28.419a1.178 1.178 0 0 1 0 2.356z" class="D"/><path d="M119.342 71.612h45.721v9.45h-45.721z" class="C"/><path fill="#03b4ca" d="M119.048 59.753h32.784v9.45h-32.784z"/><path d="M170.502 69.389h-51.454v-9.636h51.454v9.636zm-50.572-1.112h49.69v-7.412h-49.69v7.412zm50.572 12.971h-51.454v-9.636h51.454v9.636zm-50.572-1.112h49.69v-7.412h-49.69v7.412z" class="D"/><path d="M159.714 109.359H64.776c-5.552 0-10.053 4.501-10.053 10.053v56.263c0 5.552 4.501 10.053 10.053 10.053h94.938c5.552 0 10.053-4.501 10.053-10.053v-56.263c0-5.553-4.501-10.053-10.053-10.053z" class="G I"/><path d="M168.654 101.61H73.716c-5.552 0-10.053 4.501-10.053 10.053v56.264c0 5.552 4.501 10.053 10.053 10.053h94.938c5.552 0 10.053-4.501 10.053-10.053v-56.264c0-5.552-4.501-10.053-10.053-10.053z" class="B H J"/><use xlink:href="#C" fill="#f2f5f4"/><use xlink:href="#C" y="-4.244" class="B H J"/><path d="M129.196 111.829h-15.433a1.289 1.289 0 1 1 0-2.578h15.433a1.289 1.289 0 1 1 0 2.578zm38.598 0h-31.352a1.289 1.289 0 1 1 0-2.578h31.352a1.289 1.289 0 1 1 0 2.578z" class="D"/><circle cx="76.014" cy="110.539" r="3.037" class="F"/><circle cx="88.117" cy="110.539" r="3.037" class="C"/><circle cx="100.22" cy="110.539" r="3.037" class="E"/><g class="C"><use xlink:href="#D"/><use xlink:href="#D" x="14.179"/><path d="m106.714 135.374 1.763 3.572 3.942.573-2.853 2.781.674 3.926-3.526-1.854-3.526 1.854.673-3.926-2.853-2.781 3.943-.573zm-29.05 14.433 1.763 3.573 3.942.573-2.853 2.78.674 3.927-3.526-1.854-3.527 1.854.674-3.927-2.853-2.78 3.943-.573z"/></g><g class="D"><path d="m95.176 161.2-3.918-2.06-3.919 2.06.749-4.363-3.17-3.09 4.381-.636 1.959-3.97 1.959 3.97 4.381.636-3.17 3.09.748 4.363zm-8.989-7.041 2.535 2.472-.599 3.489 3.134-1.647 3.134 1.647-.598-3.49 2.535-2.471-3.504-.509-1.567-3.175-1.567 3.175-3.503.509zm16.704 6.253.748-4.363-3.17-3.09 4.381-.637 1.959-3.97 1.959 3.97 4.381.637-3.17 3.09.748 4.363-3.919-2.06-3.917 2.06zm3.918-2.727 3.134 1.648-.598-3.49 2.535-2.471-3.504-.509-1.567-3.175-1.567 3.175-3.504.509 2.535 2.471-.598 3.49 3.134-1.648z"/><text font-family="ArialRoundedMTBold" font-size="19.453" transform="translate(117.219 155.69)">+</text></g><g class="C"><use xlink:href="#E"/><use xlink:href="#E" x="14.179"/></g><path d="m168.596 147.658-4.023-2.115-4.023 2.115.768-4.48-3.255-3.172 4.498-.654 2.011-4.076 2.011 4.076 4.498.654-3.255 3.172.77 4.48zm-4.023-2.96 3.029 1.592-.578-3.373 2.451-2.388-3.387-.492-1.515-3.069-1.515 3.069-3.387.492 2.451 2.388-.578 3.373 3.029-1.592zm-25.027 17.394-4.023-2.115-4.023 2.115.769-4.48-3.255-3.172 4.498-.654 2.012-4.076 2.011 4.076 4.497.654-3.254 3.172.768 4.48zm-8.925-7.13 2.451 2.389-.579 3.373 3.03-1.593 3.029 1.593-.578-3.373 2.451-2.389-3.387-.492-1.515-3.069-1.515 3.069-3.387.492zm22.414 6.986-3.918-2.06-3.919 2.06.749-4.363-3.17-3.09 4.381-.636 1.959-3.97 1.959 3.97 4.381.636-3.17 3.09.748 4.363zm-8.989-7.041 2.535 2.472-.599 3.489 3.134-1.647 3.134 1.647-.598-3.49 2.535-2.471-3.503-.509-1.567-3.175-1.567 3.175-3.504.509zm16.704 6.254.748-4.363-3.17-3.09 4.381-.637 1.959-3.97 1.959 3.97 4.381.637-3.17 3.09.748 4.363-3.919-2.06-3.917 2.06zm3.918-2.728 3.134 1.648-.598-3.49 2.535-2.471-3.504-.509-1.567-3.175-1.567 3.175-3.504.509 2.535 2.471-.598 3.49 3.134-1.648z" class="D"/><circle cx="91.407" cy="71.894" r="7.108" class="B H"/><path d="M41.889 93.239h36.929a4.677 4.677 0 0 0 4.677-4.677V61.255a4.677 4.677 0 0 0-4.677-4.677H41.889a4.677 4.677 0 0 0-4.677 4.677v27.307a4.677 4.677 0 0 0 4.677 4.677z" class="G I"/><path d="M48.662 90.672h36.929a4.677 4.677 0 0 0 4.677-4.677V58.688a4.677 4.677 0 0 0-4.677-4.677H48.662a4.677 4.677 0 0 0-4.677 4.677v27.307a4.677 4.677 0 0 0 4.677 4.677zm-.458-40.132h37.211a4.22 4.22 0 0 0 0-8.44H48.204a4.22 4.22 0 0 0 0 8.44z" class="B H J"/><circle cx="49.233" cy="46.321" r="1.889" class="F"/><circle cx="56.761" cy="46.321" r="1.889" class="C"/><circle cx="64.289" cy="46.321" r="1.889" class="E"/><path d="M84.069 62.211H49.551a.802.802 0 1 1 0-1.604h34.518a.802.802 0 1 1 0 1.604zm-15.161 4.188H49.551a.802.802 0 1 1 0-1.604h19.357a.802.802 0 1 1 0 1.604z" class="D"/><g class="C"><use xlink:href="#F"/><path d="m66.639 70.719 1.059 2.145 2.369.345-1.714 1.67.405 2.358-2.119-1.113-2.118 1.113.405-2.358-1.714-1.67 2.368-.345z"/><use xlink:href="#F" x="17.27"/><path d="m57.944 79.388 1.059 2.146 2.368.344-1.714 1.671.405 2.358-2.118-1.113-2.119 1.113.405-2.358-1.714-1.671 2.369-.344zm8.658-.118 1.059 2.146 2.368.344-1.714 1.671.405 2.358-2.118-1.113-2.118 1.113.404-2.358-1.713-1.671 2.368-.344zm8.853.2 1.059 2.146 2.368.344-1.713 1.671.404 2.358-2.118-1.113-2.118 1.113.405-2.358-1.714-1.671 2.368-.344z"/></g><path d="M83.898 72.156c0 4.2 3.399 7.599 7.599 7.599s7.599-3.399 7.599-7.599-3.399-7.599-7.599-7.599-7.599 3.399-7.599 7.599zm12.923-2.005-6.557 6.505a.456.456 0 0 1-.645-.003l-3.449-3.477a.455.455 0 0 1 .003-.645l.863-.856a.456.456 0 0 1 .645.003l2.272 2.29 5.371-5.327a.455.455 0 0 1 .644.003l.856.863a.456.456 0 0 1-.003.644z" class="E"/><defs><path id="B" d="m104.466 152.455-49.46.302-24.238.214-12.205.106c-3.849.047-7.925-.229-11.722.441-.173.03-.176.324 0 .352 3.808.607 7.873.266 11.722.251l11.674-.089 24.769-.185 49.46-.347c.671.002.672-1.052 0-1.045z"/><path id="C" d="M168.654 105.854H73.716c-5.552 0-10.053 4.501-10.053 10.053v7.806h115.044v-7.806c0-5.552-4.501-10.053-10.053-10.053z"/><path id="D" d="m77.962 135.374 1.763 3.572 3.942.573-2.852 2.781.673 3.926-3.526-1.854-3.526 1.854.673-3.926-2.853-2.781 3.943-.573z"/><path id="E" d="m135.821 136.122 1.763 3.572 3.942.573-2.852 2.781.673 3.926-3.526-1.853-3.526 1.853.673-3.926-2.853-2.781 3.943-.573z"/><path id="F" d="m58.123 70.719 1.059 2.145 2.368.345-1.714 1.67.405 2.358-2.118-1.113-2.118 1.113.404-2.358-1.713-1.67 2.368-.345z"/></defs></svg>