<svg width="20" height="20" viewBox="0 0 20 20" fill="none" xmlns="http://www.w3.org/2000/svg">
<path fill-rule="evenodd" clip-rule="evenodd" d="M4.60012 2C3.16612 2 2.00012 3.166 2.00012 4.6C2.00012 11.988 8.01112 18 15.4001 18C16.8331 18 18.0001 16.834 18.0001 15.4C18.0001 15.289 17.9931 15.18 17.9791 15.072L13.3591 14.012C13.2671 14.188 13.1661 14.379 13.0741 14.557C12.6181 15.427 12.2881 16.059 11.4461 15.72C8.14012 14.56 5.44112 11.86 4.26612 8.514C3.90912 7.729 4.58912 7.373 5.45112 6.923C5.62612 6.831 5.81512 6.732 5.98812 6.642L4.92812 2.021C4.81712 2.007 4.70912 2 4.60012 2ZM15.4001 20C6.90812 20 0.00012207 13.092 0.00012207 4.6C0.00012207 2.063 2.06312 0 4.60012 0C4.86012 0 5.11712 0.022 5.36612 0.065C5.60912 0.104 5.85312 0.166 6.09112 0.248C6.41612 0.361 6.66112 0.634 6.73812 0.97L8.10712 6.934C8.18312 7.262 8.08812 7.606 7.85412 7.85C7.71812 7.992 7.71512 7.995 6.47512 8.644C7.47912 10.818 9.22412 12.557 11.3541 13.527C12.0041 12.286 12.0081 12.282 12.1501 12.146C12.3941 11.912 12.7401 11.821 13.0661 11.893L19.0311 13.262C19.3661 13.339 19.6391 13.583 19.7511 13.908C19.8331 14.144 19.8951 14.388 19.9361 14.639C19.9781 14.886 20.0001 15.142 20.0001 15.4C20.0001 17.937 17.9361 20 15.4001 20Z" fill="white"/>
</svg>
