<svg xmlns="http://www.w3.org/2000/svg" xmlns:xlink="http://www.w3.org/1999/xlink" xml:space="preserve" id="Modo_de_aislamiento" x="0" y="0" version="1.1" viewBox="0 0 565.2 1010.8"><style>.st0{fill:#323232;fill-opacity:.1}.st1{stroke-dasharray:10,10}.st1,.st2{fill:none;stroke:#323232;stroke-width:3;stroke-miterlimit:10}.st4{fill:#fff}.st5{fill:#808394}.st6{opacity:.21;fill:#c3c5d4}.st7{fill:#0eb57b}.st8{fill:#c3c5d4}.st11{fill:#0d9bad}.st12{fill:#323232}.st13{opacity:.5;fill:#c3c5d4}.st14{fill:#7ab24d}.st15{opacity:.47;fill:#c3c5d4}.st18{fill:#bd361b}.st19{fill:#ec6732}.st20{fill:#699942}.st21{fill:#03b4ca}.st22{fill:#fdc515}.st23{fill:#f7a120}.st24{fill:#f9ae08}.st25{fill:#d8d1ca}</style><path d="M84.1 974.7c-39.5-8-129.8-119.2-55.9-137.4 78.9-19.5 154.8-23.5 233.8-29.9 82.3-6.6 168.5-21.9 250.4.6 12.1 3.3 34.7 5.6 39.1 26.2 1.8 8.6-9.4 25-7.9 36.7 2.2 17.1 18.7 20.8 20.8 37.5 12 93.2-109.4 106.9-144.4 101.4-64.2-10.1-115.4-58-180.9-49.2-49.9 6.7-104.9 24.2-155 14.1z" class="st0"/><path d="M232 78c-115.8-13-45.1-117.9-22.5-58.4C239.1 97.7 52.6 167.3 80.9 274.9c29 109.9 210.8 162.5 233.4 239.5 7.6 25.9-3.1 91.5-80.9 152.6" class="st1"/><path d="M275.8 468.7c-1.7-.2-3.3-.4-5-.5" class="st2"/><path fill="none" stroke="#323232" stroke-dasharray="9.9385,9.9385" stroke-miterlimit="10" stroke-width="3" d="M260.9 467.1c-63.1-6.6-132.4-9.4-179.5 37.5-51.5 51.3 41.7 65.5 31.9 40.7-18.5-46.8-84.2 51.5-61.9 101.5 26 58.2 82.2 101.4 142.2 104.3"/><path d="M198.6 751.2h5" class="st2"/><path d="M331.6 259.8c-152.6 84.6 247.1 237.9 30 393.7M192.3 365.2c128-46.7 44.7 97.9 10 143.5-54.6 71.8 2 186.9 53.4 244.9" class="st1"/><path d="M461.6 832.3c-.3 1.8-.5 3.6-.8 5.5-1.4 8.5-9.3 16.2-17.3 16.8-90.7 7.4-181.3 7.4-272 0-8-.7-15.9-8.3-17.3-16.8-9.4-59.2-9.4-118.3 0-177.5 1.4-8.5 9.3-16.2 17.3-16.8l4.2-.3c89.3-7 178.5-6.9 267.8.3 8 .7 15.9 8.3 17.3 16.8 9.1 57.3 9.4 114.6.8 172z" class="st4"/><path d="M461.6 832.3c-.3 1.8-.5 3.6-.8 5.5-1.4 8.5-9.3 16.2-17.3 16.8-90.7 7.4-181.3 7.4-272 0-8-.7-15.9-8.3-17.3-16.8-9.4-59.2-9.4-118.3 0-177.5 1.4-8.5 9.3-16.2 17.3-16.8l4.2-.3c89.3-7 178.5-6.9 267.8.3 8 .7 15.9 8.3 17.3 16.8 9.1 57.3 9.4 114.6.8 172z" class="st5"/><path d="M461.6 832.3c-.3 1.8-.5 3.6-.8 5.5-1.4 8.5-9.3 16.2-17.3 16.8-90.7 7.4-181.3 7.4-272 0-8-.7-15.9-8.3-17.3-16.8-9.4-59.2-9.4-118.3 0-177.5 1.4-8.5 9.3-16.2 17.3-16.8l4.2-.3c-7 10.3-13.4 29.2-13.2 63.8.4 74.8.8 120.3 25.8 133.4 25 13.2 249.6 2.3 267.7-6.4 2-1 3.8-1.5 5.6-1.7z" class="st6"/><path d="M447.3 777.7c-.7 10.2-1.7 20.3-3 30.5-.6 4.9-1.3 9.7-2.1 14.6-1.2 7.5-8.2 14.2-15.2 14.8-4.3.4-8.6.7-13 1-13.6 1-27.3 1.8-40.9 2.4-21.7 1-43.5 1.5-65.2 1.5-22.2 0-44.5-.5-66.7-1.5-17.8-.8-35.6-1.9-53.4-3.4-4.8-.4-9.6-3.7-12.5-8.1-1.4-2-2.3-4.3-2.7-6.7-2.2-13.9-3.8-27.7-4.9-41.6-1.3-17.1-1.7-34.2-1.1-51.4.5-14.8 1.6-29.5 3.4-44.3.8-6.3 1.6-12.5 2.6-18.8 1.2-7.5 8.2-14.2 15.2-14.8 9.8-.8 19.5-1.5 29.3-2.1 15.2-.9 30.3-1.6 45.5-2.1 19.7-.6 39.4-.8 59-.6 19.8.2 39.6.8 59.4 1.8 15.3.8 30.6 1.8 45.9 3 3.1.3 6.2 1.7 8.8 3.9 3.3 2.7 5.7 6.7 6.4 10.9 2.7 16.8 4.5 33.5 5.4 50.3 1.3 20.3 1.2 40.5-.2 60.7z" class="st7"/><path d="M156.4 854.1h302s57.5 50.7 62.3 59.9c4.9 9.2-1.5 8.3-36 8.3H114.1c-19.9 0-23.8-12.2-12.2-21.9 11.7-9.8 54.5-46.3 54.5-46.3z" class="st5"/><path d="M522.2 908.3v10.2s-13.3-1.1-21.9-5c-.8-.4-1.5-.7-2.2-1.1-7-4.2-9.7-11.5-2.1-17.3 4.7-3.5 12.4-1.4 18.2 1.1 3.3 3.5 5.7 6.3 6.5 7.9.9 1.7 1.5 3.1 1.5 4.2zm-408.6-13.2-5.8 16.8-.2.5H95.4v-10.8c0-2.1.7-4.3 2.2-6.5h16z" class="st5"/><path d="M522.2 908.3c0 3.8-6.4 4.1-24.1 4.1h-384c-2.3 0-4.5-.2-6.4-.5-8.2-1.4-12.3-5.4-12.3-10.3 0-2.1.7-4.3 2.2-6.5 1.1-1.6 2.5-3.1 4.3-4.7 11.7-9.7 54.4-46.3 54.4-46.3h302s39.5 34.8 55.8 52c3.3 3.5 5.7 6.3 6.5 7.9 1 1.8 1.6 3.2 1.6 4.3z" class="st8"/><path d="M461.2 881.9H153.8c-6.8 0-10.1-8.4-5.2-13l21-19.7c1.4-1.3 3.3-2 5.2-2h266.5c2 0 3.9.8 5.3 2.2l15.1 15 4.8 4.7c4.8 4.6 1.5 12.8-5.3 12.8z" class="st4"/><defs><path id="SVGID_1_" d="M447.3 777.7c-.7 10.2-1.7 20.3-3 30.5-.6 4.9-1.3 9.7-2.1 14.6-1.2 7.5-8.2 14.2-15.2 14.8-4.3.4-8.6.7-13 1-13.6 1-27.3 1.8-40.9 2.4-21.7 1-43.5 1.5-65.2 1.5-22.2 0-44.5-.5-66.7-1.5-17.8-.8-35.6-1.9-53.4-3.4-4.8-.4-9.6-3.7-12.5-8.1-1.4-2-2.3-4.3-2.7-6.7-2.2-13.9-3.8-27.7-4.9-41.6-1.3-17.1-1.7-34.2-1.1-51.4.5-14.8 1.6-29.5 3.4-44.3.8-6.3 1.6-12.5 2.6-18.8 1.2-7.5 8.2-14.2 15.2-14.8 9.8-.8 19.5-1.5 29.3-2.1 15.2-.9 30.3-1.6 45.5-2.1 19.7-.6 39.4-.8 59-.6 19.8.2 39.6.8 59.4 1.8 15.3.8 30.6 1.8 45.9 3 3.1.3 6.2 1.7 8.8 3.9 3.3 2.7 5.7 6.7 6.4 10.9 2.7 16.8 4.5 33.5 5.4 50.3 1.3 20.3 1.2 40.5-.2 60.7z"/></defs><defs><path id="SVGID_2_" d="M447.3 777.7c-.7 10.2-1.7 20.3-3 30.5-.6 4.9-1.3 9.7-2.1 14.6-1.2 7.5-8.2 14.2-15.2 14.8-4.3.4-8.6.7-13 1-13.6 1-27.3 1.8-40.9 2.4-21.7 1-43.5 1.5-65.2 1.5-22.2 0-44.5-.5-66.7-1.5-17.8-.8-35.6-1.9-53.4-3.4-4.8-.4-9.6-3.7-12.5-8.1-1.4-2-2.3-4.3-2.7-6.7-2.2-13.9-3.8-27.7-4.9-41.6-1.3-17.1-1.7-34.2-1.1-51.4.5-14.8 1.6-29.5 3.4-44.3.8-6.3 1.6-12.5 2.6-18.8 1.2-7.5 8.2-14.2 15.2-14.8 9.8-.8 19.5-1.5 29.3-2.1 15.2-.9 30.3-1.6 45.5-2.1 19.7-.6 39.4-.8 59-.6 19.8.2 39.6.8 59.4 1.8 15.3.8 30.6 1.8 45.9 3 3.1.3 6.2 1.7 8.8 3.9 3.3 2.7 5.7 6.7 6.4 10.9 2.7 16.8 4.5 33.5 5.4 50.3 1.3 20.3 1.2 40.5-.2 60.7z"/></defs><clipPath id="SVGID_3_"><use xlink:href="#SVGID_1_" overflow="visible"/></clipPath><clipPath id="SVGID_4_" clip-path="url(#SVGID_3_)"><use xlink:href="#SVGID_2_" overflow="visible"/></clipPath><g clip-path="url(#SVGID_4_)"><path d="M447.3 777.7c-.7 10.2-1.7 20.3-3 30.5-.6 4.9-1.3 9.7-2.1 14.6-1.2 7.5-8.2 14.2-15.2 14.8-4.3.4-8.6.7-13 1-13.6 1-27.3 1.8-40.9 2.4-21.7 1-43.5 1.5-65.2 1.5-22.2 0-44.5-.5-66.7-1.5-17.8-.8-35.6-1.9-53.4-3.4-4.8-.4-9.6-3.7-12.5-8.1-1.4-2-2.3-4.3-2.7-6.7-2.2-13.9-3.8-27.7-4.9-41.6-1.3-17.1-1.7-34.2-1.1-51.4.5-14.8 1.6-29.5 3.4-44.3.8-6.3 1.6-12.5 2.6-18.8 1.2-7.5 8.2-14.2 15.2-14.8 9.8-.8 19.5-1.5 29.3-2.1 15.2-.9 30.3-1.6 45.5-2.1 19.7-.6 39.4-.8 59-.6 19.8.2 39.6.8 59.4 1.8 15.3.8 30.6 1.8 45.9 3 3.1.3 6.2 1.7 8.8 3.9 3.3 2.7 5.7 6.7 6.4 10.9 2.7 16.8 4.5 33.5 5.4 50.3 1.3 20.3 1.2 40.5-.2 60.7z" class="st4"/><path d="M447.3 777.7c-.7 10.2-1.7 20.3-3 30.5-.6 4.9-1.3 9.7-2.1 14.6-1.2 7.5-8.2 14.2-15.2 14.8-4.3.4-8.6.7-13 1-13.6 1-27.3 1.8-40.9 2.4-21.7 1-43.5 1.5-65.2 1.5-22.2 0-44.5-.5-66.7-1.5-17.8-.8-35.6-1.9-53.4-3.4-4.8-.4-9.6-3.7-12.5-8.1-1.4-2-2.3-4.3-2.7-6.7-2.2-13.9-3.8-27.7-4.9-41.6-1.3-17.1-1.7-34.2-1.1-51.4.5-14.8 1.6-29.5 3.4-44.3.8-6.3 1.6-12.5 2.6-18.8 1.2-7.5 8.2-14.2 15.2-14.8 9.8-.8 19.5-1.5 29.3-2.1 15.2-.9 30.3-1.6 45.5-2.1 19.7-.6 39.4-.8 59-.6 19.8.2 39.6.8 59.4 1.8 15.3.8 30.6 1.8 45.9 3 3.1.3 6.2 1.7 8.8 3.9 3.3 2.7 5.7 6.7 6.4 10.9 2.7 16.8 4.5 33.5 5.4 50.3 1.3 20.3 1.2 40.5-.2 60.7z" class="st4"/><path d="M158 677.3h293.7v12.1H158z" class="st11"/><path d="M232.3 700.9h150.2v6.1H232.3z" class="st12"/><path d="M263.3 719.7h56.9v10.9h-56.9zm64.1 0h84.8v10.9h-84.8zm-64.7 17.8h149v10.9h-149zm-.2 17.5h149v20.6h-149z" class="st13"/><path d="M334 794.6c0 1.4-1.3 2.6-3 2.6h-47.3c-1.7 0-3-1.2-3-2.6v-6.9c0-1.4 1.3-2.6 3-2.6H331c1.7 0 3 1.2 3 2.6v6.9z" class="st14"/><path d="M453.8 840.8c0 1.7-1.3 3-3 3H168c-1.7 0-3-1.3-3-3v-23.7c0-1.7 1.3-3 3-3h282.8c1.7 0 3 1.3 3 3v23.7z" class="st12"/></g><path d="m221.1 892.8 7.2-6.6c1.3-1.1 2.9-1.8 4.6-1.8h128.4c2.1 0 4 .9 5.3 2.6l5.2 6.6c3.6 4.5.4 11.1-5.3 11.1H225.7c-6.2 0-9.2-7.7-4.6-11.9z" class="st5"/><path d="m262.6 647.8-96 82c.5-14.8 1.6-29.5 3.4-44.3l47.2-35.7c15.1-.8 30.2-1.5 45.4-2z" class="st15"/><path d="M461.2 881.9H153.8c-6.8 0-10.1-8.4-5.2-13l21-19.7c1.4-1.3 3.3-2 5.2-2h110.1c-2.1 0-92 2.9-104.5 7-12.5 4-14.5 17.2-10.4 19.5 2.8 1.5 117 3.6 193.1 3.6 36.3 0 65.2-.3 71.8-.8 14.8-1.3 23.4-8.4 26.9-12l4.8 4.7c4.7 4.5 1.4 12.7-5.4 12.7z" class="st5"/><path d="M388.2 846.1c-3.3.2-7.2 1-8.3 4.1-.8 2.4.9 5.1 3.1 6.3 2.2 1.2 4.9 1.4 7.4 1.5 18.2.7 36.4 1.5 54.5 2.2 6.2.2 12.5.6 18 3.4 6.8 3.6 11 10.6 14.3 17.6 3.2 7 5.8 14.4 10.7 20.3 1.5 1.8 3.3 3.5 5.6 4.3 2.2.8 5 .4 6.5-1.5 2.5-3 .3-7.5-1.9-10.7-7.1-10.6-14.4-23.3-24.6-31-9.3-7-15.9-14.2-28-16.6-10.3-2-20 .4-30.1-.2-9-.6-18-.3-27.2.3z" class="st15"/><path d="M207.8 776c-3-.6-10-9.2-4.3-10.6 6.1-1.5 11.9-1.8 18-2.3 6.3-.5 13-1.7 19.3 0 .9.3 2.7.4 3 2 .1.7-.7 1.9-.6 2.8.2 1.3 1.4 1.6 1.6 2.9.9 7.2-8.4 8.2-11.1 7.8-4.9-.8-8.9-4.5-13.9-3.8-3.9.6-8.2 1.9-12 1.2z" class="st0"/><path d="m222.156 737.081.022-.199.398.044-.022.199zM215.8 758.8c-.3 0-.5-.1-.8-.1v-.2c.2 0 .5.1.8.1v.2zm-1.5-.2c-.2-.1-.5-.1-.7-.2l.1-.2c.2.1.5.1.7.2l-.1.2zm-1.5-.5c-.2-.1-.5-.2-.7-.3l.1-.2c.2.1.5.2.7.3l-.1.2zm-1.4-.6c-.2-.1-.5-.2-.7-.4l.1-.2c.2.1.4.3.7.4l-.1.2zm-1.3-.8c-.2-.1-.4-.3-.6-.5l.1-.2c.2.2.4.3.6.4l-.1.3zm-1.2-.9c-.2-.2-.4-.3-.6-.5l.2-.2c.2.2.4.3.6.5l-.2.2zm-1.1-1.1c-.2-.2-.3-.4-.5-.6l.2-.1c.2.2.3.4.5.6l-.2.1zm-1-1.2c-.2-.2-.3-.4-.4-.6l.2-.1c.1.2.3.4.4.6l-.2.1zm-.9-1.3c-.1-.2-.3-.4-.4-.7l.2-.1c.1.2.2.4.4.7l-.2.1zm-.7-1.3c-.1-.3-.2-.5-.3-.7l.2-.1c.1.2.1.4.2.6v.1l-.1.1zm-.4-1.6v-.7h.2v.7h-.2zm.3-1.5h-.2c0-.2.1-.5.2-.8l.2.1c-.1.2-.1.5-.2.7zm.4-1.4-.2-.1c.1-.2.2-.5.3-.7l.2.1c-.1.2-.2.4-.3.7zm.6-1.4-.2-.1c.1-.2.2-.5.4-.7l.2.1c-.2.2-.3.4-.4.7zm2.8-1.1c-.3 0-.5 0-.8-.1l.1-.2c.2.1.5.1.7.1v.2zm.8-.1-.1-.2c.2-.1.3-.2.3-.4h.2v.1c.1.2-.1.4-.4.5zm-2.8-.1-.2-.1c.1-.1.1-.2.2-.3-.1 0-.1-.1-.1-.1l.2-.2.1.1.1-.1.2.2-.1.1c.1.1.2.1.3.2l-.1.2c-.1-.1-.2-.1-.3-.2-.2 0-.3.1-.3.2zm1-1.1-.1-.2c.2-.2.5-.3.7-.4l.1.2c-.3.1-.5.2-.7.4zm1.8-.1c-.2-.2-.3-.3-.5-.4l.1-.2c.3.1.5.2.7.5l-.3.1zm-3.4-.1c0-.1-.1-.3-.1-.4v-.4h.2v.3c0 .1 0 .3.1.4l-.2.1zm.5-1.4-.2-.1c.1-.2.3-.4.4-.6l.2.1c-.1.2-.3.4-.4.6zm.9-1.2-.2-.2c.2-.2.4-.4.6-.5l.1.2c-.1.2-.3.3-.5.5zm1.2-1-.1-.2c.2-.1.4-.3.6-.4l.1.2c-.2.1-.4.3-.6.4zm1.3-.7-.1-.2c.2-.1.5-.2.7-.3l.1.2c-.3 0-.5.1-.7.3zm1.4-.6-.1-.2c.2-.1.5-.2.7-.2l.1.2c-.2 0-.5.1-.7.2zm1.4-.4v-.2c.2-.1.5-.1.8-.1v.2c-.3 0-.5 0-.8.1zm8.4-.1c-.3 0-.5-.1-.8-.1v-.2c.3 0 .5 0 .8.1v.2zm-1.5-.1c-.3 0-.5 0-.8-.1v-.2c.2 0 .5 0 .8.1v.2zm-5.4-.1v-.2c.2 0 .5-.1.8-.1v.2c-.3.1-.5.1-.8.1zm3.8 0h-.8v-.2h.8v.2zm-2.2-.1v-.2h.8v.2h-.8zm.6 22.2h-.1v-.2h.4v.2h-.3zm12.6-7.6-.1-.2c.2-.2.4-.3.6-.5l.1.2c-.2.1-.4.3-.6.5zm1.2-1-.1-.2c.2-.2.4-.3.6-.5l.2.2c-.3.2-.5.3-.7.5zm1.2-1.1-.2-.2c.2-.2.4-.4.5-.6l.2.2c-.2.3-.4.5-.5.6zm1-1.1-.2-.1c.2-.2.3-.4.4-.6l.2.1c-.1.1-.3.4-.4.6zm.8-1.4-.2-.1c.1-.2.2-.5.3-.7l.2.1c-.1.3-.2.5-.3.7zm.6-1.4-.2-.1c.1-.2.1-.5.2-.7h.2c-.1.3-.2.6-.2.8zm.2-1.5h-.2v-.8h.2v.3c.1.2.1.3 0 .5zm-.2-1.6c0-.2-.1-.5-.1-.7l.2-.1c.1.3.1.5.1.8h-.2zm-.4-1.4c-.1-.2-.2-.5-.3-.7l.2-.1c.1.2.2.5.3.7l-.2.1zm-.5-1.5c-.1-.2-.2-.5-.3-.7l.2-.1c.1.2.2.5.3.7l-.2.1zm-.7-1.3c-.1-.2-.3-.4-.4-.7l.2-.1c.1.2.3.4.4.7l-.2.1zm-.8-1.3c-.1-.2-.3-.4-.4-.6l.2-.1c.2.2.3.4.4.6l-.2.1zm-.9-1.3c-.1-.2-.3-.4-.5-.6l.2-.1c.2.2.3.4.5.6l-.2.1zm-1-1.2c-.2-.2-.3-.4-.5-.6l.2-.1c.2.2.3.4.5.6l-.2.1zm-.9-1.2c-.2-.2-.3-.4-.5-.6l.2-.1c.2.2.3.4.5.6l-.2.1zm-1-1.2c-.2-.2-.3-.4-.5-.6l.2-.1c.2.2.3.4.5.6l-.2.1zm-1-1.2c-.2-.2-.3-.4-.5-.6l.2-.1c.1.2.3.4.5.6l-.2.1zm-.9-1.2c-.2-.2-.3-.4-.4-.6l.2-.1c.1.2.3.4.4.6l-.2.1zm-.8-1.3c-.1-.2-.3-.5-.4-.7l.2-.1c.1.2.2.4.4.7l-.2.1zm-.8-1.4c-.1-.3-.2-.5-.3-.7l.2-.1c.1.2.2.5.3.7l-.2.1zm-.4-1.5v-.8h.2v.7l-.2.1zm.4-1.5-.2-.1c.1-.2.2-.5.3-.7l.2.1c-.2.2-.3.5-.3.7zm.7-1.3-.2-.2c.2-.2.4-.4.6-.5l.1.2-.5.5zm1.1-1-.1-.2c.2-.1.4-.3.7-.4l.1.2c-.2.2-.5.3-.7.4zm-5.6 37.3c-.2-.2-.3-.4-.5-.6l.2-.1c.2.2.3.4.5.6l-.2.1zm-1-1.2c-.2-.2-.3-.4-.5-.6l.2-.1c.1.2.3.4.4.6l-.1.1zm-.8-1.3c-.1-.2-.3-.4-.4-.7l.2-.1c.1.2.3.4.4.6l-.2.2zm-.8-1.3c-.1-.2-.3-.4-.4-.7l.2-.1c.1.2.2.4.4.7l-.2.1zm-.8-1.4c-.1-.2-.2-.5-.3-.7l.2-.1c.1.2.2.5.3.7l-.2.1zm-.6-1.4c-.1-.2-.2-.5-.3-.7l.2-.1c.1.2.2.5.3.7l-.2.1zm-.6-1.4c-.1-.2-.2-.5-.2-.7l.2-.1c.1.2.2.5.2.7l-.2.1zm-.4-1.5c-.1-.3-.1-.5-.2-.8h.2c.1.2.1.5.2.7l-.2.1zm-.4-1.5c0-.3-.1-.5-.1-.8h.2c0 .2.1.5.1.8h-.2zm-.1-1.6v-.8h.2v.8h-.2zm.2-1.5h-.2c0-.3.1-.5.1-.8h.2c0 .3 0 .5-.1.8zm.3-1.5-.2-.1c.1-.3.1-.5.2-.7l.2.1c-.1.2-.2.4-.2.7zm.5-1.4-.2-.1c.1-.2.2-.5.4-.7l.2.1c-.2.2-.3.4-.4.7zm.7-1.4-.2-.1c0-.1.1-.1.1-.2.1-.1.2-.3.3-.4l.2.1c-.1.2-.2.3-.3.4 0 .1 0 .2-.1.2zm.9-1.2-.2-.1c.1-.2.3-.4.4-.6l.2.1c-.1.2-.2.4-.4.6zm.9-1.3-.2-.1c.1-.2.3-.4.4-.7l.2.1c-.1.3-.3.5-.4.7zm.8-1.3-.2-.1c.1-.2.2-.5.4-.7l.2.1c-.2.2-.3.4-.4.7zm.7-1.4-.2-.1c.1-.2.2-.5.3-.7l.2.1c-.1.2-.2.5-.3.7zm.6-1.4-.2-.1c.1-.2.2-.5.3-.7l.2.1c-.1.2-.2.4-.3.7zm.5-1.5-.2-.1c.1-.3.1-.5.2-.7h.2c0 .3-.1.6-.2.8zm.3-1.5h-.2v-.8h.2v.8zm-.5-1.5c-.1-.2-.3-.4-.5-.5l.1-.2c.2.1.4.3.6.6l-.2.1zm-4.8 0-.1-.2c.3-.1.5-.2.7-.3l.1.2c-.2.1-.5.2-.7.3zm1.4-.5-.1-.2c.3-.1.5-.1.8-.2v.2c-.2.1-.4.1-.7.2zm2.3-.2h-.8v-.2h.8v.2z" class="st12"/><path d="M236.8 765c0 .1 0 .3-.1.4-.1.7-.7 1.2-1.3 1.3-7 .6-14 .6-20.9 0-.6-.1-1.2-.6-1.3-1.3-.7-4.6-.7-9.1 0-13.7.1-.7.7-1.2 1.3-1.3h.3c6.9-.5 13.7-.5 20.6 0 .6.1 1.2.6 1.3 1.3.8 4.5.8 8.9.1 13.3z" class="st4"/><path d="M236.8 765c0 .1 0 .3-.1.4-.1.7-.7 1.2-1.3 1.3-7 .6-14 .6-20.9 0-.6-.1-1.2-.6-1.3-1.3-.7-4.6-.7-9.1 0-13.7.1-.7.7-1.2 1.3-1.3h.3c6.9-.5 13.7-.5 20.6 0 .6.1 1.2.6 1.3 1.3.8 4.5.8 8.9.1 13.3z" class="st8"/><path d="M236.8 765c0 .1 0 .3-.1.4-.1.7-.7 1.2-1.3 1.3-7 .6-14 .6-20.9 0-.6-.1-1.2-.6-1.3-1.3-.7-4.6-.7-9.1 0-13.7.1-.7.7-1.2 1.3-1.3h.3c-.5.8-1 2.2-1 4.9 0 5.8.1 9.3 2 10.3s19.2.2 20.6-.5c.2 0 .3-.1.4-.1z" class="st6"/><path d="M235.7 760.8c-.1.8-.1 1.6-.2 2.3 0 .4-.1.7-.2 1.1-.1.6-.6 1.1-1.2 1.1-.3 0-.7.1-1 .1-1 .1-2.1.1-3.1.2-1.7.1-3.3.1-5 .1-1.7 0-3.4 0-5.1-.1-1.4-.1-2.7-.1-4.1-.3-.4 0-.7-.3-1-.6-.1-.2-.2-.3-.2-.5-.2-1.1-.3-2.1-.4-3.2-.1-1.3-.1-2.6-.1-4 0-1.1.1-2.3.3-3.4.1-.5.1-1 .2-1.4.1-.6.6-1.1 1.2-1.1.8-.1 1.5-.1 2.3-.2 1.2-.1 2.3-.1 3.5-.2 1.5 0 3-.1 4.5 0 1.5 0 3 .1 4.6.1 1.2.1 2.4.1 3.5.2.2 0 .5.1.7.3.3.2.4.5.5.8.2 1.3.3 2.6.4 3.9.1 1.7 0 3.2-.1 4.8z" class="st7"/><path d="M213.4 766.7h23.2s4.4 3.9 4.8 4.6c.4.7-.1.6-2.8.6h-28.5c-1.5 0-1.8-.9-.9-1.7.9-.7 4.2-3.5 4.2-3.5z" class="st5"/><path d="M241.5 770.8v.8s-1-.1-1.7-.4c-.1 0-.1-.1-.2-.1-.5-.3-.7-.9-.2-1.3.4-.3 1-.1 1.4.1.3.3.4.5.5.6.2.2.2.3.2.3zm-31.4-1-.4 1.3h-.9v-.8c0-.2.1-.3.2-.5h1.1z" class="st5"/><path d="M241.5 770.8c0 .3-.5.3-1.9.3h-30c-.6-.1-.9-.4-.9-.8 0-.2.1-.3.2-.5.1-.1.2-.2.3-.4.9-.7 4.2-3.6 4.2-3.6h23.2s3 2.7 4.3 4c.3.3.4.5.5.6.1.3.1.4.1.4z" class="st4"/><path d="M236.8 768.8h-23.7c-.5 0-.8-.6-.4-1l1.6-1.5c.1-.1.3-.2.4-.2h20.5c.2 0 .3.1.4.2l1.2 1.2.4.4c.4.3.1.9-.4.9z" class="st8"/><defs><path id="SVGID_5_" d="M235.7 760.8c-.1.8-.1 1.6-.2 2.3 0 .4-.1.7-.2 1.1-.1.6-.6 1.1-1.2 1.1-.3 0-.7.1-1 .1-1 .1-2.1.1-3.1.2-1.7.1-3.3.1-5 .1-1.7 0-3.4 0-5.1-.1-1.4-.1-2.7-.1-4.1-.3-.4 0-.7-.3-1-.6-.1-.2-.2-.3-.2-.5-.2-1.1-.3-2.1-.4-3.2-.1-1.3-.1-2.6-.1-4 0-1.1.1-2.3.3-3.4.1-.5.1-1 .2-1.4.1-.6.6-1.1 1.2-1.1.8-.1 1.5-.1 2.3-.2 1.2-.1 2.3-.1 3.5-.2 1.5 0 3-.1 4.5 0 1.5 0 3 .1 4.6.1 1.2.1 2.4.1 3.5.2.2 0 .5.1.7.3.3.2.4.5.5.8.2 1.3.3 2.6.4 3.9.1 1.7 0 3.2-.1 4.8z"/></defs><defs><path id="SVGID_6_" d="M235.7 760.8c-.1.8-.1 1.6-.2 2.3 0 .4-.1.7-.2 1.1-.1.6-.6 1.1-1.2 1.1-.3 0-.7.1-1 .1-1 .1-2.1.1-3.1.2-1.7.1-3.3.1-5 .1-1.7 0-3.4 0-5.1-.1-1.4-.1-2.7-.1-4.1-.3-.4 0-.7-.3-1-.6-.1-.2-.2-.3-.2-.5-.2-1.1-.3-2.1-.4-3.2-.1-1.3-.1-2.6-.1-4 0-1.1.1-2.3.3-3.4.1-.5.1-1 .2-1.4.1-.6.6-1.1 1.2-1.1.8-.1 1.5-.1 2.3-.2 1.2-.1 2.3-.1 3.5-.2 1.5 0 3-.1 4.5 0 1.5 0 3 .1 4.6.1 1.2.1 2.4.1 3.5.2.2 0 .5.1.7.3.3.2.4.5.5.8.2 1.3.3 2.6.4 3.9.1 1.7 0 3.2-.1 4.8z"/></defs><clipPath id="SVGID_7_"><use xlink:href="#SVGID_5_" overflow="visible"/></clipPath><clipPath id="SVGID_8_" clip-path="url(#SVGID_7_)"><use xlink:href="#SVGID_6_" overflow="visible"/></clipPath><g clip-path="url(#SVGID_8_)"><path d="M235.7 760.8c-.1.8-.1 1.6-.2 2.3 0 .4-.1.7-.2 1.1-.1.6-.6 1.1-1.2 1.1-.3 0-.7.1-1 .1-1 .1-2.1.1-3.1.2-1.7.1-3.3.1-5 .1-1.7 0-3.4 0-5.1-.1-1.4-.1-2.7-.1-4.1-.3-.4 0-.7-.3-1-.6-.1-.2-.2-.3-.2-.5-.2-1.1-.3-2.1-.4-3.2-.1-1.3-.1-2.6-.1-4 0-1.1.1-2.3.3-3.4.1-.5.1-1 .2-1.4.1-.6.6-1.1 1.2-1.1.8-.1 1.5-.1 2.3-.2 1.2-.1 2.3-.1 3.5-.2 1.5 0 3-.1 4.5 0 1.5 0 3 .1 4.6.1 1.2.1 2.4.1 3.5.2.2 0 .5.1.7.3.3.2.4.5.5.8.2 1.3.3 2.6.4 3.9.1 1.7 0 3.2-.1 4.8z" class="st4"/><path d="M235.7 760.8c-.1.8-.1 1.6-.2 2.3 0 .4-.1.7-.2 1.1-.1.6-.6 1.1-1.2 1.1-.3 0-.7.1-1 .1-1 .1-2.1.1-3.1.2-1.7.1-3.3.1-5 .1-1.7 0-3.4 0-5.1-.1-1.4-.1-2.7-.1-4.1-.3-.4 0-.7-.3-1-.6-.1-.2-.2-.3-.2-.5-.2-1.1-.3-2.1-.4-3.2-.1-1.3-.1-2.6-.1-4 0-1.1.1-2.3.3-3.4.1-.5.1-1 .2-1.4.1-.6.6-1.1 1.2-1.1.8-.1 1.5-.1 2.3-.2 1.2-.1 2.3-.1 3.5-.2 1.5 0 3-.1 4.5 0 1.5 0 3 .1 4.6.1 1.2.1 2.4.1 3.5.2.2 0 .5.1.7.3.3.2.4.5.5.8.2 1.3.3 2.6.4 3.9.1 1.7 0 3.2-.1 4.8z" class="st4"/><path d="M213.5 753.1h22.6v.9h-22.6z" class="st11"/><path d="M219.2 754.9h11.6v.5h-11.6z" class="st12"/><path d="M221.6 756.3h4.4v.8h-4.4zm4.9 0h6.5v.8h-6.5zm-5 1.4H233v.8h-11.5zm0 1.3H233v1.6h-11.5z" class="st13"/><path d="M227 762.1c0 .1-.1.2-.2.2h-3.6c-.1 0-.2-.1-.2-.2v-.5c0-.1.1-.2.2-.2h3.6c.1 0 .2.1.2.2v.5z" class="st14"/><path d="M236.2 765.7c0 .1-.1.2-.2.2h-21.8c-.1 0-.2-.1-.2-.2v-1.8c0-.1.1-.2.2-.2H236c.1 0 .2.1.2.2v1.8z" class="st12"/></g><path d="m218.3 769.7.6-.5c.1-.1.2-.1.4-.1h9.9c.2 0 .3.1.4.2l.4.5c.3.3 0 .9-.4.9h-10.8c-.6-.1-.8-.7-.5-1z" class="st5"/><path d="m221.5 750.8-7.4 6.3c0-1.1.1-2.3.3-3.4l3.6-2.7c1.2-.1 2.4-.2 3.5-.2z" class="st15"/><path d="M236.8 768.8h-23.7c-.5 0-.8-.6-.4-1l1.6-1.5c.1-.1.3-.2.4-.2h8.5c-.2 0-7.1.2-8 .5-1 .3-1.1 1.3-.8 1.5.2.1 9 .3 14.9.3 2.8 0 5 0 5.5-.1 1.1-.1 1.8-.6 2.1-.9l.4.4c.3.4 0 1-.5 1z" class="st5"/><path d="M231.2 766.1c-.3 0-.6.1-.6.3-.1.2.1.4.2.5s.4.1.6.1c1.4.1 2.8.1 4.2.2.5 0 1 0 1.4.3.5.3.9.8 1.1 1.4.2.5.4 1.1.8 1.6.1.1.3.3.4.3.2.1.4 0 .5-.1.2-.2 0-.6-.1-.8-.5-.8-1.1-1.8-1.9-2.4-.7-.5-1.2-1.1-2.2-1.3-.8-.2-1.5 0-2.3 0-.7-.2-1.4-.2-2.1-.1z" class="st15"/><path d="m223.4 736.1-.4 1.3 6.9 2.2z" class="st18"/><path d="m222.8 738.9.7 1.2 6.1-.6z" class="st18"/><path d="m229.9 739.6-10.6-.4 3-2.1zm-6.5-3.5 6.5 3.5-4.7-5z" class="st19"/><path d="m228 719.9.1.9 4.9-.6z" class="st20"/><path d="m228.4 721.7.8.5 3.5-2z" class="st20"/><path d="m233 720.2-6.7 2.7 1.2-2.1zm-5-.3 5 .3-4.3-1.7z" class="st14"/><path d="m214.5 729.4.6 1-5.1 3.7zm1.2 2.2-.3 1.1-5.2 1.3z" class="st11"/><path d="m210 734.1 8.8-3.2-3.1-1zm4.5-4.7-4.5 4.7 2.6-5.5z" class="st21"/><path d="M209.2 762.1c0-.2-.9-.4-2-.4s-2 .2-2 .4c.1.2.9.4 2 .4 1.1.1 2-.1 2-.4z" class="st12"/><path d="m207.2 765.8-.6.1-1.2-6.2.5-.1z" class="st22"/><path d="m205.443 759.785.098-.02 1.281 6.168-.098.02zm.187-.104.099-.02 1.28 6.168-.097.02zm.11.015.097-.02 1.281 6.168-.097.02z" class="st23"/><path d="M207.1 766.6c-.2 0-.3-.1-.4-.3l-.1-.4.6-.1.1.4c.1.2-.1.4-.2.4z" class="st19"/><path d="m206.636 765.95.589-.116.019.098-.59.116z" class="st24"/><path d="m205.4 759.7.5-.1-.4-.7z" class="st25"/><path d="M205.5 758.9v.4l.2-.1z" class="st12"/><path d="m207.5 765.7-.6-.1.5-6.3.5.1z" class="st19"/><path d="m207.048 765.633.418-6.286.1.006-.418 6.286zm.172-.01.419-6.286.1.007-.42 6.286zm.171-.01.419-6.287.1.007-.419 6.286z" class="st18"/><path d="M207.1 766.4c-.2 0-.3-.2-.3-.3v-.4l.6.1v.4c.1.1-.1.2-.3.2z" class="st19"/><path d="m206.904 765.562.598.047-.008.1-.598-.047z" class="st24"/><path d="m207.4 759.3.5.1-.2-.9z" class="st25"/><path d="m207.7 758.5-.1.4h.2z" class="st12"/><path d="M207.6 765.8h-.7l-.4-6.3h.5z" class="st21"/><path d="m206.545 759.548.1-.008.53 6.278-.1.008z" class="st11"/><path d="m206.646 759.554.1-.008.53 6.278-.1.008zm.201-.002.1-.008.53 6.278-.1.008z" class="st11"/><path d="M207.3 766.5c-.2 0-.3-.1-.3-.3v-.4h.6v.4c0 .2-.1.3-.3.3z" class="st19"/><path d="m206.901 765.831.599-.043.007.1-.598.043z" class="st24"/><path d="M206.5 759.5h.5l-.3-.8z" class="st25"/><path d="m206.7 758.7-.1.3h.2z" class="st12"/><path d="m207.9 765.6-.6-.1 1.2-6.2.5.1z" class="st14"/><path d="m207.424 765.417 1.185-6.187.098.019-1.185 6.187zm.132.103 1.185-6.188.098.02-1.185 6.187zm.248.024 1.185-6.188.098.02-1.185 6.187z" class="st20"/><path d="M207.4 766.3c-.2 0-.3-.2-.3-.4l.1-.4.6.1-.1.4c.1.2-.1.3-.3.3z" class="st19"/><path d="m207.255 765.426.588.12-.02.098-.588-.12z" class="st24"/><path d="m208.5 759.3.5.1-.1-.8z" class="st25"/><path d="m208.9 758.6-.1.3h.2z" class="st12"/><path fill="#42c63d" d="M209.2 762.1v.1zm-4 0v.1-.1z"/><path fill="#36aa30" d="M205.2 762.2zm4 0z"/><path d="M207.2 762.6c-1.1 0-2-.2-2-.4l.8 5.4c.9.2 1.8.2 2.8 0l.5-5.4c-.1.2-1 .4-2.1.4z" class="st5"/><path d="M207.1 762.8c-.9 0-1.7-.1-1.8-.3l.7 4.7c1.2.3 2.4-.6 2.5-1.8l.3-2.9c0 .2-.7.3-1.7.3z" class="st5"/><path d="m286.4 457.4-4.4 16.8 89.9 28.6z" class="st18"/><path d="m279.4 493.5 9.4 15 79.1-7.1z" class="st18"/><path d="m371.9 502.8-138.7-5.3 38.9-28.3zm-85.5-45.4 85.5 45.4-61.6-65.1z" class="st19"/><path d="m346.2 246.2 2 11.5 62.9-7.6z" class="st20"/><path d="m352.1 270.3 9.9 6.5 46.3-26.4z" class="st20"/><path d="m411.1 250.1-86.2 35.6 15.9-28.3zm-64.9-3.9 64.9 3.9-55.8-22.6z" class="st14"/><path d="m171.3 369.9 8.3 12.8-67.2 48.4z" class="st11"/><path d="m187.1 398.1-3.8 15.1-67.9 15.7z" class="st11"/><path d="m112.4 431.1 114.3-42.2-40.2-13zm58.9-61.2-58.9 61.2L146 360z" class="st21"/><path d="m247.8 76.9-5.2 10.5 55.3 30.9z" class="st23"/><path d="m238.3 99.7 4.2 11.1 53 6.1z" class="st23"/><path d="m297.9 118.3-90.6-22.2 29.5-13.4zm-50.1-41.4 50.1 41.4-31.7-51.2z" class="st22"/></svg>