<svg width="16" height="16" viewBox="0 0 16 16" fill="none" xmlns="http://www.w3.org/2000/svg">
<path d="M8 15.5C12.1421 15.5 15.5 12.1421 15.5 8C15.5 3.85786 12.1421 0.5 8 0.5C3.85786 0.5 0.5 3.85786 0.5 8C0.5 12.1421 3.85786 15.5 8 15.5Z" stroke="white" stroke-linecap="round" stroke-linejoin="round"/>
<path d="M10.0833 5.50008C9.66237 5.07578 9.1432 4.79931 8.58814 4.70386C8.03309 4.60841 7.46572 4.69802 6.95413 4.96196C6.44253 5.22589 6.00844 5.65293 5.70395 6.19183C5.39945 6.73072 5.23749 7.35859 5.23749 8.00008C5.23749 8.64157 5.39945 9.26944 5.70395 9.80834C6.00844 10.3472 6.44253 10.7743 6.95413 11.0382C7.46572 11.3021 8.03309 11.3918 8.58814 11.2963C9.1432 11.2009 9.66237 10.9244 10.0833 10.5001" stroke="white" stroke-linecap="round" stroke-linejoin="round"/>
</svg>
