<svg width="16" height="20" viewBox="0 0 16 20" fill="none" xmlns="http://www.w3.org/2000/svg">
<path fill-rule="evenodd" clip-rule="evenodd" d="M8 8.9995C7.173 8.9995 6.5 8.3265 6.5 7.4995C6.5 6.6725 7.173 5.9995 8 5.9995C8.827 5.9995 9.5 6.6725 9.5 7.4995C9.5 8.3265 8.827 8.9995 8 8.9995ZM8 3.9995C6.07 3.9995 4.5 5.5695 4.5 7.4995C4.5 9.4295 6.07 10.9995 8 10.9995C9.93 10.9995 11.5 9.4295 11.5 7.4995C11.5 5.5695 9.93 3.9995 8 3.9995ZM8 17.646C6.325 16.062 2 11.615 2 7.922C2 4.657 4.691 2 8 2C11.309 2 14 4.657 14 7.922C14 11.615 9.675 16.062 8 17.646ZM8 0C3.589 0 0 3.553 0 7.922C0 13.397 7.049 19.501 7.349 19.758C7.537 19.919 7.768 20 8 20C8.232 20 8.463 19.919 8.651 19.758C8.951 19.501 16 13.397 16 7.922C16 3.553 12.411 0 8 0Z" fill="white"/>
</svg>
