<svg xmlns="http://www.w3.org/2000/svg" xml:space="preserve" id="Слой_1" x="0" y="0" version="1.1" viewBox="0 0 228 330.6"><style>.st1{fill:#ec6732}.st2{fill:#bd361b}.st4{fill-opacity:.3}.st4,.st5{fill:#fdc515}.st6{fill:#03b4ca}.st7{fill:#0d9bad}.st8{fill:#c3c5d4}.st10{fill:#fff}.st11{fill:#2a3033}.st12{fill:#808393}.st13{fill:#fdc515;fill-opacity:.1}.st18{fill:#323232}.st21{opacity:.88;fill:#9398b9;enable-background:new}.st23{fill:#323232;fill-opacity:.2}.st26{fill:#de9908}.st33{fill:#2a3135}.st35{fill:#699942}.st36{fill:#7ab24d}.st37{fill:#efe8e6}.st45{fill:#fccc02}.st56{fill:#d35454}</style><path fill="#323232" fill-opacity=".1" d="M194.1 313.2c15.9-3.9 52.4-57.6 22.5-66.4-31.8-9.4-62.4-11.3-94.3-14.4-33.2-3.2-68-10.6-101 .3-4.9 1.6-14 2.7-15.8 12.6-.7 4.1 3.8 12.1 3.2 17.7-.9 8.2-7.5 10.1-8.4 18.1-4.8 45 44.1 51.6 58.2 49 25.9-4.9 46.5-28 73-23.7 20.2 3.2 42.4 11.7 62.6 6.8z"/><path d="M113.3 74.6h5.6V77h-5.6v-2.4z" class="st1"/><path d="M113.3 74.7h5.6v1.4h-5.6v-1.4z" class="st2"/><path fill="#fdc515" fill-opacity=".2" d="M115.8 78.8s-3.3 3.8-3.8 5 2.8 7.1 2.9 7.5-1.7 3.4-1.5 4.1c0 0 6.2-2.7 6.5-3.9s-1.4-12.2-1.4-12.2l-2.7-.5z"/><path d="M115.3 80.2c-.1.1-2.8 3.4-2.6 4.2s3.1 7.4 3.2 7.7-1 1.6-.7 1.6 3.7-2.4 3.6-2.9-.8-1.8-.5-1.8.5.6.8.6-.9-8.9-.9-8.9l-2.9-.5z" class="st4"/><path d="m117.6 80.6-1.6-.3s-2.6 3.4-2.3 3.8 2.5 6.4 2.8 6.9.7-4 1.1-4 .2.9.6.9-.6-7.3-.6-7.3z" class="st4"/><path d="M116.6 79.8s-2.1 3.9-2 4.1 1.6 4.8 1.6 4.8l1-4c-.1-.4-.1-4.8-.1-4.8l-.5-.1z" class="st5"/><path d="M120.3 81.1H112l1.4-4h5.6l1.3 4z" class="st1"/><path d="M120.4 81.7h-8.6c-.2 0-.3-.1-.3-.3 0-.2.1-.3.3-.3h8.6c.2 0 .3.1.3.3 0 .1-.1.3-.3.3z" class="st2"/><path d="M105.3 57.8s-6.8 7.7-5 13 6.8 8.9 6.8 8.9.3-11.3 2.7-13.3-4.5-8.6-4.5-8.6zm21.6 0s6.8 7.7 5 13-6.8 8.9-6.8 8.9-.3-11.3-2.7-13.3 4.5-8.6 4.5-8.6z" class="st6"/><path d="M126.9 57.8s-6.8 6.5-4.4 8.6 2.7 13.3 2.7 13.3.3-.2.7-.5c.5-6.4.3-12.9 3.2-18.6-1.2-1.7-2.2-2.8-2.2-2.8zm-21.6 0s6.8 6.5 4.4 8.6-2.7 13.3-2.7 13.3-.3-.2-.7-.5c-.5-6.4-.3-12.9-3.2-18.6 1.3-1.7 2.2-2.8 2.2-2.8z" class="st7"/><path d="M116.1 3.8s-26.3 49.5-3.3 70.6h6.7c-.1 0-3.4-70.6-3.4-70.6z" class="st8"/><path d="M116.1 3.8v70.3l3.3.3c23-21-3.3-70.6-3.3-70.6z" class="st8"/><path fill="#fff1f3" d="M121.5 75.1h-10.7c-.4 0-.7-.3-.7-.7 0-.4.3-.7.7-.7h10.7c.4 0 .7.3.7.7 0 .3-.3.7-.7.7z"/><path d="M114.2 73.1h4.1c14.3-21-2.1-70.5-2.1-70.5s-16.3 49.5-2 70.5z" class="st10"/><circle cx="115.7" cy="36.6" r="4.5" class="st11"/><circle cx="115.7" cy="36.6" r="4.1" class="st11"/><circle cx="115" cy="35.7" r="2.5" class="st12"/><path d="M116.1 2.3c-2 0-6.9 14.5-6.9 15.3s3.6 1.9 6.8 1.9h.2c3.3 0 6.8-1.1 6.8-1.9s-4.9-15.3-6.9-15.3z" class="st6"/><path d="M110 17.5s5.3-14.4 5.9-14.3-3.1 14.4-3.5 14.8-2.6-.2-2.4-.5z" class="st7"/><path d="m112 114.1-10.9-7.2-48.2-1S48.4 88.1 50.3 85s14.4.6 14.4.6-2.7-4.1-1.7-4.9 5.5 3.9 5.5 3.9-1.8-9.5.8-11.3 12.6 15.8 12.6 15.8.8-3.8 2.4-3.4 5.3 4.9 5.3 4.9-1.8-7.5-.2-8.1 5.3 9.3 5.3 9.3 3.9-2 5.5-1.4 7.9 7.3 7.9 7.3 3-13.5 3.9-13.8 4.3 7.5 4.3 7.5 1.7-2.8 2.4-2.9 1.2 3.6 1.2 3.6S132 71.6 136 73.3s-.5 20.3-.5 20.3 2.8-3.6 3.7-3.3.9 5.1.9 5.1 13.6-7.8 14.9-6.7-.4 8.8-.4 8.8 4.7-3.6 5.8-3 .4 5.7.4 5.7 10.5-13 12.6-11.8-.1 21.8-.1 21.8" class="st13"/><path d="m117 117.8-12.5-10.3-55.2-1.4s-5.2-25.3-2.9-29.8 16.5.8 16.5.8-3.2-5.9-2-7 6.3 5.6 6.3 5.6-2-13.5.9-16 14.5 22.5 14.5 22.5.9-5.3 2.7-4.8 6.1 7 6.1 7-2-10.7-.2-11.5 6.1 13.2 6.1 13.2 4.5-2.8 6.3-2 9.1 10.4 9.1 10.4 3.4-19.2 4.4-19.6 5 10.7 5 10.7 2-3.9 2.7-4.1 1.4 5.1 1.4 5.1 13.9-29.2 18.4-26.8-.6 28.9-.6 28.9 3.2-5.1 4.2-4.7 1.1 7.3 1.1 7.3 15.5-11.1 17.1-9.6-.5 12.6-.5 12.6 5.4-5.1 6.6-4.3.5 8.1.5 8.1 12.1-18.6 14.5-16.9-.1 31.1-.1 31.1" class="st13"/><path fill="#f9f9f9" d="M42.7 120.2s7.1-16 8.7-16.6 54.8-3.8 58-3.6 6.3 11.1 6.3 11.1 3.2-10.8 6.3-11.1 56.4 3 58 3.6 8.7 16.6 8.7 16.6l-31.1-3.6-32.6-3.9s-2.6-1.4.3 5.3c0 0-1.6 4.1-11.3 3.2s-7.8-4.6-5.8-8.2l-65.5 7.2z"/><path d="M118.9 109.9c-.6 1.2 9.1 7.1-2 8.3s-5.5-5.3-5.5-7.9c0-2.3-55.1 5.8-67.7 7.7l-1 2.2 65.4-7.2c-2 3.6-3.9 7.2 5.8 8.2s11.3-3.2 11.3-3.2c-2.9-6.7-.3-5.3-.3-5.3l32.6 3.9 31.1 3.6-1.4-3.1c-15.4-1.9-67.8-8.2-68.3-7.2z" class="st8"/><path d="M196.8 121.1c-.2-.2-.4-.3-.7-.3-5.8-.9-77.2-12.4-74.4-8.6 2.6 3.6 3.7 6.8-6.1 7.4h-.2c-9.8-.6-8.7-3.8-6.1-7.4 2.8-3.8-68.6 7.7-74.4 8.6-.2 0-.5.2-.7.3-.8.8-.1 2.2 1 2 15.3-2.4 73.6-11.5 71.1-8.1-2.8 3.8-3.9 7.3 8.5 7.5h1.2c12.4-.2 11.3-3.7 8.5-7.5-2.5-3.4 55.8 5.7 71.1 8.1 1.3.2 2-1.2 1.2-2z" class="st12"/><path fill="#823d38" d="m125.6 117.6-1.6-1.7c0 .4 0 .9-.2 1.3-.8 1.7-3.4 2.6-8.2 2.9-4.8-.3-7.4-1.2-8.2-2.9-.2-.3-.2-.6-.2-1l-1.8 2.1c-.1.5-.1 1 .1 1.4.7 1.5 4 2.3 9.6 2.4h1.2c5.7-.1 8.9-.9 9.6-2.4.2-.6.1-1.4-.3-2.1z"/><path d="M110.7 109.1c-2.1-2.6-41 1-65.2 6.5l65.2-6.5zm8.5-.2c2.1-2.6 40.4-.8 64.6 4.7.1 0-64.6-4.7-64.6-4.7zm-6.6.1s-1.6-4.9-3.2-4.9-45.6 3.1-59.4 6.2l56.7-4.7c2 0 3-.4 5.9 3.4zm1.4.5s-2.6-8.4-4.1-8.4-40.3 1.4-54.1 4.5l53.5-3c1.9 0 2.5 2.3 4.7 6.9zm3.2 0s2.6-8.4 4.1-8.4 40.3 1.4 54.1 4.5l-53.5-3c-2 0-2.5 2.3-4.7 6.9zm.9-.4s1.6-4.9 3.2-4.9 46 1.8 59.8 4.9l-57.1-3.4c-2 0-2.9-.4-5.9 3.4zm-5.2 1.5s-2.3 4.9-1.1 5.8 9.7.8 9.5-1.2-3.6-5.1-3.6-5.1 3.1 4.3 2.5 4.8-7.2 1.6-7.4.8.1-5.1.1-5.1zm1.4.6s-.8 3.5-.1 3.8 4.3-.2 4.5-.8-1.9-3.6-1.9-3.6 1.2 2.7.7 3-2.9 1-2.9.3-.3-2.7-.3-2.7z" class="st8"/><path d="M110.1 100.3c-13.4-7.7-51.7-11.7-52.5-10.5s42.1 4.5 49.8 11.1" class="st10"/><path d="m35.4 123.1 72.7-10.2 18-.4 69.7 10.6-31.7 12.9-67.5-8.3-36.9 11-24.3-15.6z" class="st11"/><path fill="#275e7a" d="M177.6 122.5 127.4 134l-74.6-6.2 36.3-19.2 88.5 13.9z"/><path d="M180.8 125.8v6.8c0 2-1.7 3.5-3.7 3.3l-86.4-7.5c-2-.2-4.5-1.8-5.5-3.6l-3.8-6.8c-1-1.8 6.4-4.3 8-5.6l-.3-3.4v-.1c1.6-1.3-1.1-2.2.9-1.9l87.1 14.3c1.4.3 2.6 1.2 3.2 2.5.4.7.5 1.4.5 2z" class="st6"/><path fill="#40ebf4" d="m180.4 124-90.8-14.1-.4-.7v-.1c1.6-1.3-1.1-2.2.9-1.9l87.1 14.3c1.4.2 2.6 1.2 3.2 2.5z"/><path d="M89.5 110.9v15.3l-33.7 15.6c.2-.3.5-.6.7-1 .8-1.4 1-6.7.1-10.4-.2-1-.6-1.9-1-2.5l32.7-16.5 1.2-.5z" class="st8"/><path d="m88.8 111.3-3.1 1.5v15.5l3.1-1.9v-15.1z" class="st18"/><path d="m86.1 112.6-1.3.6v16l1.3-1.2v-15.4z" class="st1"/><path d="M83.7 127.7v-8.1L57 132.5c.8 6.3-.5 7-1.5 8.8l28.2-13.6z" class="st10"/><path d="m52.6 141.4-.9-2.1L88.3 124v-14l-35.6 17.9-1-2L89 107c.4-.2.8-.2 1.1 0s.5.6.5 1v16.7c0 .5-.3.9-.7 1.1l-37.3 15.6z" class="st7"/><path fill="#138290" d="M178.5 135.9 123 147.5l-70.5-6.2 38.1-15.9 87.9 10.5z"/><path d="M98.3 114.2v6m0 .7c-.4 0-.8-.4-.8-.8v-6c0-.4.4-.8.8-.8s.8.4.8.8v6c0 .5-.4.8-.8.8zm-3.1-7.6v7m0 .8c-.4 0-.8-.4-.8-.8v-7c0-.4.4-.8.8-.8s.8.4.8.8v7c0 .5-.3.8-.8.8z" class="st10"/><path fill="#2d3438" d="M154.5 282h-5v-34.7l5 .3V282z"/><path d="M195.5 235.3v26.8l-38.4 22.1.5-4.4-.6-32.2v-2.1l11.7-3.1 2.7-.8 3.3-3.8 3.8 1.5 17-4z" class="st1"/><path d="M148.6 246.9v34.9L45 275.5c3-5.1 4.2-13.6 3.7-21.3-.3-4.6-1.2-8.8-2.7-11.9-.3-.6-.7-1.2-1-1.7l103.6 6.3z" class="st10"/><path d="M150.2 280.5h-2.8v-31.9l2.7.2.1 31.7z" class="st1"/><path d="M147.4 248.7V261l-98.8-6.8c-.3-4.6-1.2-8.8-2.7-11.9l101.5 6.4z" class="st8"/><path d="M156 284.5h-.1l-116.3-6.8.3-4.5 114 6.7v-30.4l-114.2-6.7.3-4.5 116.3 6.8c1.2.1 2.1 1.1 2.1 2.2v34.9c0 .6-.3 1.2-.7 1.6-.6.5-1.1.7-1.7.7z" class="st2"/><path d="M178.4 240.5c2.2.3 12 3.7 12 3.7l2.6-6.5-14.6 2.8z" class="st21"/><path fill="#f94341" d="M195.6 235.3h-.1l-37.6 10.3-1-.1-14.2-.9-52.9-3.3-24.4-1.3-25.6-1.6 14-1.4 32.3-3.2 21.5-2.2 52.5 2.2 35.5 1.5z"/><path d="m97 244.3 9.7 10.4 25.7-8.8-23.1 1c-1.7.3-5.2-1.4-6.3-2.8-.6-.2-5.6.4-6 .2z" class="st23"/><path d="m131 242.4-5.2 3.8.2 18.4 9.9-7.3 7 4.9v-7l-11.6-12.7-.3-.1z" class="st23"/><path fill="#af2c2c" d="m92.7 237.3-2.9 4.2-24.4-1.5-11.6-3 32.3-3.2 6.6 3.5z"/><path d="M195.6 235.3h-.1v1.3l-15 4.3-30.5 4.3-7.3-.5-2-2.7 4.3-5.6 15-2.6 35.6 1.5z" class="st21"/><path fill="#e27227" d="m171.9 135.9-6.3 1.9-.7-3.2 7 1.3z"/><path d="m117.5 127.4-.1 3.7-.5 15.5v.4l-3.3.6-2.1.4-8.8 1.6-.8.1-1.3.2-7.9 1.4-6.3 1.1-21.1 3.9c-2.4 0-4.3-1.6-4.3-3.7v-6.5c0-2.7 1.9-4.6 4.3-5.1l32.8-8.7 13-3.4 6.4-1.5z" class="st26"/><path d="m117.5 127.4-.1 3.7-2.1 1.4-16.2 3.7-1.1-3.7 13-3.4 6.5-1.7z" class="st5"/><path d="M117 146.5v-18l51.5 6.7c-1.9 2.2-2.7 6-2.4 9.4.2 2 .8 6.5 1.7 7.9.2.3.4.5.7.8l-51.5-6.8z" class="st8"/><path d="m120.1 145.4-.9-7.4 46.8 6.3c.2 2 .8 6.5 1.8 7.9l-47.7-6.8z" class="st10"/><path d="M116.1 129h3v16.5h-3V129z" class="st18"/><path fill="#ba5b54" d="M119.1 129h1.3c-1.5 4.1-.7 16.2 0 16.5h-1.3c-1.5-2.8-.9-14.3 0-16.5z"/><path d="m172.7 153.9-54-6.8c-2.4 0-4.4-1.7-4.4-3.7v-12.6c0-2 2-3.7 4.5-3.7h.1L173 134l-.2 1.9-54-6.7c-1.3 0-2.5.8-2.5 1.7v12.6c0 .9 1.2 1.7 2.5 1.7h.1L173 152l-.3 1.9z" class="st5"/><path fill="#c68a07" d="m172 153.8-39.3 6.2-63.4-3.4 16.8-4.1-21.1 3.9 21.2-4 30.4-5.8 55.4 7.2z"/><path d="m166 142.2-44.6-6.2v-1.4l44.8 6.2-.2 1.4z" class="st10"/><path fill="#808393" d="m167.4 136.7-48.8-6.1c.1-.4.2-.9.3-1.3l49.3 6.2-.8 1.2z" opacity=".88"/><path d="m170.2 159.5-7.6 1.1-70.6-5.9.1-3.4 10.6-.3 65.8 6.5 1.7 2z" class="st2"/><path d="m96.7 170-1.3 1.1-2.5.1h-.8L67 172.8l-16.2 1.3h-.6c-1.4-.3-2.2-1.5-2.7-2.8l-.2-.5c0-.2-.1-.3-.1-.5s-.1-.4-.1-.7v-8.3c0-.7.2-1.4.5-1.9.3-.7.9-1.3 1.5-1.8.6-.2 1.1-.4 1.7-.6l2.6-.5 39.9-7v2.4l-.1 11v2.7l3.5 4.4z" class="st2"/><path d="M93.3 149.4v2.4l-5.3 1.5-40.5 6c.3-.7.9-1.3 1.5-1.8.6-.2 1.1-.4 1.7-.6l2.6-.5 40-7z" class="st1"/><path d="m92.7 169.8-.6 1.5-25.1 1.5-16.2 1.3h-.6c-1.4-.3-2.2-1.5-2.7-2.8l40.5-4.6 4.7 3.1z" class="st2"/><path d="M165.1 176 92 170l-.2-15v-2.6L165 160c-.8 0-1.5.4-2 1-.3.4-.6.8-.8 1.4l-.1.3c-.4 1.2-.7 2.7-.7 4.3 0 2.6.5 5.3 1.5 7 .5 1.1 1.3 1.9 2.2 2z" class="st8"/><path d="m162.9 173.2-69.4-5.3v-8.2l68 7.4c0 2.2.5 4.5 1.4 6.1z" class="st10"/><path d="m96.7 169.5-6.1-.6v-17l6.1.9s-.1 0-.3.1c-.6.2-1.9.9-2.3 2.4-.1.3-.1.7 0 1.1v9.6c0 1.5 1.2 2.5 2.6 3.5z" class="st18"/><path d="M170.3 176.4 94.5 171c-3.7 0-6.8-2.6-6.8-5.7v-10.6c0-3.1 3.1-5.7 6.8-5.7h.1l75.8 7.6-.3 2.9-75.6-7.5c-2.1 0-3.8 1.3-3.8 2.8v10.6c0 1.5 1.8 2.8 3.9 2.8h.1l75.8 5.4-.2 2.8z" class="st1"/><path fill="#fa856c" d="m84.1 171.3-2.5.2c-3.9.3-5.7-.5-5.9-3.4v-12.2c-.1-1.1.6-3.2 1.7-3.7l3.9-.7s-2.2 1.2-2.2 3.7v12.5c.2 3.2 3.2 3.6 5 3.6zm-13.4 1.1-10.1.8c-3.9.4-5.6-.4-6-2.8-.1-.4-.1-.9-.1-1.5v-8.3c.3-4.6 2.1-5 7.6-5.9l4.4-.7c-.6.2-1.8 1.1-1.7 4.8v8.7c0 .6.1 1.2.2 1.7.9 2.9 4 3.2 5.7 3.2z"/><path fill="#5d8739" d="m170.2 176.2-38.1 1.6-81.8-3.8 42.7-3.4 77.2 5.6z"/><path d="m93.9 162 67.7 7" class="st8"/><path fill="#2fd183" d="m58.4 217 53 9.2c-3.1 0-8 1.6-8.5 2.5L55.5 219l2.9-2z"/><path d="m112.7 225.1-6.9 22-.2.7-21.6-6.3-3.8-1-21.8-5.5c-2.9-.8-5.5-2.9-5.5-6.1v-7.3c0-2.6 2.5-4.6 5.5-4.6l36.7 4.7 17.6 3.4z" class="st33"/><path d="M105.8 227.1v19.5l88.2-8.7c-2.5-2.8-3.5-7.6-3.1-11.9.2-2.6 1-4.9 2.2-6.6.3-.4.5-.7.8-1l-88.1 8.7z" class="st10"/><path d="M109.8 228.4v6.6l81.1-8.7c.3-2.6 1-4.9 2.3-6.6l-83.4 8.7z" class="st8"/><path d="M104.8 245.7h3.8v-17.6h-3.8c-1 6.1-1.1 12 0 17.6z" class="st18"/><path d="M108.5 245.9h1.8c-1.9-5.2-.9-17.2 0-17.6h-1.8c-1.9 3.5-1.1 14.8 0 17.6z" class="st1"/><path d="m198.4 237-5.9-1.8-87.8 8.8 1.2 2.6 90.4-7.8 2.1-1.8z" class="st11"/><path fill="#323232" d="m89.5 225.1 17.7 2 4-2.5-21.5-2.4-.3.5-31-5.7c-3 0-5.5 2.1-5.5 4.6v7.3c0 3.2 2.6 5.3 5.5 6.1l21.7 5.5 3.8 1 21.6 6.3.2-.7-2.2-2.3-21.4-6.3c.2-1.6 1.2-3.7 2.4-6.8 1.6-4.1 3.1-5.8 5-6.6z" opacity=".4"/><path d="M108.1 248.2c-3.2 0-5.7-2-5.8-4.5-.7-3.9-.7-8.2 0-12.9.1-2.5 2.6-4.5 5.7-4.6l90.4-8.7.2 2.5-90.5 8.7h-.1c-1.7 0-3.2 1-3.2 2.2v.2c-.7 4.6-.7 8.5 0 12.2v.2c0 1.2 1.4 2.1 3.2 2.2l90.4-8.7.2 2.5-90.5 8.7z" class="st12"/><path d="m198.5 217.5-85.3 8.5-54.8-9 64.8-4 75.3 4.5z" class="st8"/><path d="M126.1 233.2v8.7l2.1 1.8.1 2.4 7.2-.7 6.4-.5h.1l-1-10.3-14.9-1.4z" class="st21"/><path d="m144.1 242.2-15 1.7-.2 16.5h.1l7.9-8.3 7 7.3h.1l.2-16.9-.1-.3z" class="st35"/><path d="m141.2 231.6-15.3 1.3 3.1 11 15-1.7-2.8-10.6z" class="st36"/><path d="m178.7 197-37.7 4.8h-30.9l-35.3-3.1-25.3-2.2 52.4-1.9 70.4 2.2 6.4.2z" class="st6"/><path d="M184.9 203.1v7.8c0 .6-.1 1.2-.3 1.7-.3.9-1 1.7-1.7 2.3-1.1.9-2.4 1.5-3.8 2l-.4.1-7.8 2.4-6.2 1.9-23.9 7.3v-2.8l.2-24.3 19-2.4 1.6-.2 17-2.1h.3c.6 0 1.3.2 1.8.4 2.5 1 4.2 3.3 4.2 5.9z" class="st6"/><path d="M142.2 202.9v24.2l-87.4-9.7c3-3.5 4.1-4.9 3.7-10.2-.3-3.2-1.2-6.1-2.7-8.2-.3-.4-.6-.8-1-1.2l87.4 5.1z" class="st8"/><path d="M140.5 204.6v8.2l-82-5.2c-.1-1.3-.3-2.5-.7-3.6-.5-1.7-1.2-3.3-2.1-4.6l84.8 5.2z" class="st37"/><path d="M140.5 204.6v2.4l-1 2.3-81.6-5.3c-.5-1.7-1.2-3.3-2.1-4.6l84.7 5.2z" class="st21"/><path d="M144.4 226.1h-7.8c2.3-4 2.5-19 0-21.8h7.8v21.8z" class="st11"/><path d="M139.5 228.9h-.2l-90-8.6.3-3.6 89.9 8.6c1.9 0 3.5-1.1 3.5-2.4v-15.2c0-1.3-1.6-2.4-3.6-2.4h-.1l-90-5.2.2-3.6 90 5.2c3.9 0 7.1 2.7 7.1 6v15.2c0 3.3-3.2 6-7.1 6z" class="st7"/><path d="m159.9 219.4-3.5.9v-14.1c.4-3.7-3.3-5.7-5.3-5.7l2.7-.5c3.9 0 6.1 3.1 6.1 6.2v13.2z" class="st10"/><path d="M159.9 219.4c-.1 1.4-.6 3.6-1.4 4l-4 1.2s1.6-2.1 1.9-4.2l3.5-1zm-44.1-4.1L58.4 211" class="st8"/><path d="m172.3 196.8-4.9.9-64.2 1.8-53.6-3 52.4-1.9 70.3 2.2z" class="st33"/><path d="M176.1 183.5v5.9c0 1.2-.3 2.4-.9 3.4-1.3 2.5-4.1 4.3-7.3 4.6h-1l-8.9.1h-.1l-9.4.1-56.5.5c-2.8 0-11.7-.7-18.2-1.8-1-.2 3.8-.1 3-.3-2.1-.5-3.7-1.1-4.4-1.7-.3-.2-.4-.5-.3-.8 0-.1.2-.2.5-.2 1-.3-2.3-.8.4-1.1 3.3-.4 6.9-.8 8.3-1.1.3-.1.6-.2.6-.3v-8.9c-1.6-2.1-1.7-4.1-.6-5.4.1-.2.3-.3.4-.5.2-.2.5-.4.8-.6.4-.2.8-.4 1.3-.5.9-.3 2-.4 3.3-.4h1.1l10.7.1 17.1.2 32.3.4 7.8.1 10.7.1c3.6 0 6.7 1.8 8.2 4.4.2.4.4.7.6 1.1l.3.9c.1.2.1.5.1.8.1.3.1.6.1.9z" class="st36"/><path d="m175.6 180.9-11.9-.1h-9.8l-53.8-.2c-.5-1.2-1.3-2.3-2.2-3.2-1.9-1.9-4.3-3-6.9-3.2l.5-.1 24.6.7 32.3.4 7.8.1 10.7.1c3.6 0 6.7 1.8 8.2 4.4.1.3.3.7.5 1.1z" class="st36"/><path fill="#bfe743" d="M164.8 186.4c0 5.3-2.6 10.4-7 11.2h-.1l-9.4.1c3.7-1.1 6.7-6.2 6.6-11v-.4c.1-1.9-.3-3.7-1.1-5.4h9.8c.8 1.6 1.2 3.5 1.2 5.5z"/><path fill="#f9f93d" d="M163.7 180.9h-9.8c-1.2-2.7-3.3-4.9-5.6-5.6l7.8.1h.1c3.4-.1 6.1 2.2 7.5 5.5zm-52.3-.2c-1.3-3.3-3.7-5.7-6.7-5.8l-1.3-.1c2 .7 3.9 3 5 5.8.7 1.7 1 3.7 1 5.6v.4c.1 5-2.6 10.3-5.9 11.4l2.7-.1h.1c3.9-.9 6.3-6.1 6.3-11.6-.2-1.9-.6-3.9-1.2-5.6z"/><path fill="#323232" d="m79.1 191.4 2.2-.4.7.2c.5.1-2 .1-2.9.2zm96.4.7c-.1.3-.2.5-.4.7-1.3 2.5-4.1 4.3-7.3 4.6H162l-70 .6c-2.8 0-11.7-.7-18.2-1.8-1-.2 3.8-.1 3-.3-2.1-.5-3.7-1.1-4.4-1.7-.3-.2-.4-.5-.3-.8 0-.1.2-.2.5-.2 1-.3-2.3-.8.4-1.1l5.8-.7c-.1 0 0 0 .1.1 6.6 1.2 15.4 1.9 18.2 1.8l68.9-.6h6.8c1-.1 1.9-.3 2.7-.6zm-96.7-.6h.3-.3z" opacity=".3"/><path d="M93.8 175.5v21.7l-33.5-2c2.4-3.2 3.4-7.1 3-11.8-.2-2.9-1-5.5-2.2-7.4-.3-.4-.5-.8-.8-1.1l33.5.6z" class="st8"/><path fill="#ff644d" d="M85.8 175.9h.7-.7z"/><path d="m63.4 184 25.5.5v-2.1l-25.8-.5.3 2.1zm28.1 7.4-28.7-1.2c.2-.6.3-1.3.4-2.1l28.4 1.1-.1 2.2zm-1.3 3.4-28.8-1.3.9-1.9 28 1.1-.1 2.1z" class="st37"/><path d="M88.6 196.5c2.7-.1 5.8-1 7.8-2.5 2.6-1.9 3.5-4.8 3.5-8s-1.6-6-4.2-7.9c-1.9-1.4-4.4-2.4-7.1-2.5 2.6 1.4 4.8 6.1 4.8 10.4s-2.2 9.1-4.8 10.5z" class="st33"/><path d="M90.6 198h-.5l-31.8-1.6.2-3.2 31.8 1.6c2.1.1 4-.6 5.5-2s2.3-3.3 2.3-5.4V185c0-2.1-.8-4-2.3-5.5-1.5-1.5-3.4-2.3-5.5-2.3l-31.7.2v-3.2l31.7-.2c2.9 0 5.7 1.1 7.8 3.2s3.2 4.8 3.2 7.7v2.4c0 2.9-1.2 5.7-3.2 7.6-2.2 2.1-4.8 3.1-7.5 3.1z" class="st35"/><g opacity=".66"><path fill="#9398b9" d="m116 172.3-1.6-9.2-13.2-2.2-1.1 7.6.7.1.1 2.6"/><path d="m116 179.9-.1 1.3-7.5-5.2-6.9 4.6c.1-2.2-1.6-5.8-4.5-6.3l19 .5v5.1z" class="st21"/></g><path fill="#f8b20c" d="m102.4 168.7.2 11.5 8.1-4.1 6.3 4.8-.2-11.3"/><path d="m116.8 169.6-1.2-7.2-14.4-1.4 1.2 7.7" class="st5"/><path d="M98.9 231.8c-.4 3.1-.5 6.1 0 8.8" class="st18"/><path d="M98.9 241.4c-.4 0-.7-.3-.8-.6-.5-2.5-.5-5.4 0-9.1.1-.4.5-.7.9-.7s.7.5.7.9c-.5 3.5-.5 6.2 0 8.6.1.4-.2.8-.6.9h-.2z" class="st45"/><path d="M95.4 234c-.3 1.3-.3 2.6 0 3.9" class="st18"/><path d="M95.4 238.6c-.4 0-.7-.2-.8-.6-.3-1.4-.3-2.8 0-4.2.1-.4.5-.7.9-.6s.7.5.6.9c-.3 1.2-.3 2.3 0 3.5.1.4-.2.9-.6.9 0 .1-.1.1-.1.1z" class="st45"/><path d="m160.5 155.7-2 2.9-61.8-5.8 3.9-3.1 59.9 6z" class="st2"/><path fill="#e56753" d="m70.7 172.4-10.1.8c-3.9.4-5.6-.4-6-2.8l10.4-1.2c.9 2.9 4 3.2 5.7 3.2zm13.4-1.1-2.5.2c-3.9.3-5.7-.5-5.9-3.4l3.4-.4c.3 3.2 3.2 3.6 5 3.6z"/><path d="M162.8 155.8v3.1l3.4.3-1-3.2-2.4-.2zm-.5 17.2.1 2.5 2.6-.2-.3-2-2.4-.3z" class="st2"/><path fill="#9195aa" d="M97.5 198.9v4l3.1.1v18.2H98v3.5s-2.9.6-3.9 3.6c-1.5 4.4-1.2 13.1 1 16.4l-1.7 1.2 1.6.1-.1 30.3-3-.1.1 4.2-11 10.8-1.8-55.2 7.1-35.7 7.4-1.6 3.8.2z" opacity=".3"/><path d="M87.5 192.6c.7 0 1.3.2 1.8.5s1 .7 1.4 1.2.7 1.1.8 1.8.2 1.4.1 2.1l-11.2 88.2c-.1.8-.3 1.5-.7 2.1s-.8 1.2-1.3 1.6-1.1.8-1.7 1-1.3.3-2 .2L21.3 285c-.6-.1-1.2-.3-1.7-.6s-.9-.8-1.3-1.3-.6-1.1-.7-1.8-.2-1.3-.1-2.1l11.1-83.8c.1-.7.3-1.4.6-2s.7-1.1 1.2-1.6 1-.8 1.6-1 1.2-.4 1.8-.3l53.7 2.1z" class="st12"/><path d="M90.8 196.4c-.1-.5-.4-1-.7-1.4s-.7-.8-1.2-1-1-.4-1.5-.4l-53.7-2.2c-.5 0-1 .1-1.5.3s-.9.5-1.3.9-.7.8-1 1.3-.4 1-.5 1.6L27 213.9 25.3 227l-6.9 52.4c-.1.6 0 1.2.1 1.7s.3 1 .6 1.4.6.8 1 1.1.9.4 1.4.5l53.6 6.3c.6.1 1.1 0 1.6-.2.3-.1.6-.2.9-.4.2-.1.4-.2.5-.4.4-.4.8-.8 1-1.3s.5-1.1.5-1.7l1-8 10.2-80.2c.1-.6.1-1.2 0-1.8z" class="st11"/><path id="B" d="M84 203.7h.2c.1 0 .1.1.1.1s.1.1.1.2v.2L77 263.4l-44.1-52.6 1.2-8.9c0-.1 0-.1.1-.2l.1-.1.1-.1h.2c-.2-.1 49.4 2.2 49.4 2.2z" class="st10"/><path d="M95.2 198.4v1l-.2 1.8-11 85.7v1.5l-.1.1v.4l-.1.1-.1.1v.8l-.1.1-.1.1-.1.1-.1.1-.1.1-.1.1-.1.1-.1.1-.1.1-.1.1-.1.1-.1.1-.1.1-.1.1-.1.1-.1.1-.1.1h-.1s-.1 0-.1.1l-.3.1-.1.1h-.1c-.1 0-.2.1-.2.1H81c-.1 0-.3.1-.4.1h-.1l-.3.1h-1l-3.5-.4h1.1c.1 0 .2 0 .3-.1h.1l.4-.1h.1l.3-.1.1-.1.3-.1.1-.1-2.8-.3H77l.3-.1h.1l.3-.1.1-.1c.1 0 .2-.1.2-.1l.1-.1.3-.2.3-.3.3-.3.3-.3.2-.3c.1-.1.2-.2.2-.4l.1-.3.1-.1.2-.4.1-.4.1-.5 11-86.3.2-1.8V197l-.1-.2-.1-.1-.1-.2-.1-.2c0-.1-.1-.2-.1-.3l-.2-.3-.2-.3-.1-.1c0-.1-.1-.1-.1-.2s-.1-.1-.2-.1c0 0 .5-.1 1.4.1l-.1-.1c-.1-.1-.2-.2-.2-.3l-.3-.3-.3-.3c-.1-.1-.2-.2-.3-.2-.1-.1-.2-.1-.3-.2-.1-.1-.2-.1-.4-.2l-.4-.1 3.4 1.1h.3l.1.1h1.3l.1.1.1.1.1.1.1.1.1.1.1.1.1.1.1.1.1.1.1.1.1.1.1.1.1.1s0 .1.1.1l.1.1.1.1v.1l.1.1.1.1v.2l.1.3v.2l.1.3v1.1l-1.2-.2z" class="st12"/><path fill="#8b8ba5" d="m83.5 288.6-.1.1v.1l-.1.1-.1.1v.8l-.1.1-.1.1-.1.1-.1.1-.1.1-.1.1-.1.1-.1.1-.1.1-.1.1-.1.1-.1.1-.1.1-.1.1-.1.1-.1.1-.1.1h-.1s-.1 0-.1.1l-.3.1-.1.1h-.1c-.1 0-.2.1-.2.1h-.1c-.1 0-.3.1-.4.1H80l-.3.1h-1l-3.5-.4h1.1c.1 0 .2 0 .3-.1h.1l.4-.1h.1l.3-.1.1-.1.3-.1.1-.1-2.8-.3h1.3l.3-.1h.1l.3-.1.1-.1c.1 0 .2-.1.2-.1l.1-.1.3-.2.3-.3.3-.3.3-.3.2-.3c.1-.1.2-.2.2-.4l.1-.3 4.2.4z"/><path d="M95.2 198.4v1l-.2 1.8-3.7-.8.2-1.8v-1.8l-.1-.2-.1-.1-.1-.2-.1-.2c0-.1-.1-.2-.1-.3l-.2-.3-.2-.3-.1-.1 4.2 1.2v.2l.1.3v.2l.1.3v1.1h.3zm-18.3 65-1.1 9.1-1.3 10.1c0 .1 0 .1-.1.2s-.1.1-.1.2-.1.1-.2.1-.1.1-.2 0l-2.1-.2-47.3-5.3c-.1 0-.1 0-.2-.1l-.1-.1s-.1-.1-.1-.2v-.2l5.8-44.6 1.7-13.1 1.1-8.7 44.2 52.8z" class="st10"/><g fill="#02b4cb"><path d="M51.9 256.5c.9.8 2.4.9 3.4.2l16.5-11.8c1-.7 1.4-2.2.9-3.3l-6.9-16.9c-.4-1-1.7-1.8-2.8-1.8H46.9c-1.1 0-2.3.8-2.8 1.8l-7.3 15.8c-.5 1-.2 2.4.6 3.1l14.5 12.9z" opacity=".3"/><path d="M60.8 255.5c1.2.2 2.6-.5 3-1.6l8-18.5c.5-1.1.1-2.5-.9-3.2l-14.2-10.9c-.8-.6-2.3-.7-3.3-.2l-5.1 2.8-3.5 1.9-5.4 3c-1 .5-1.7 1.8-1.6 2.9l1.3 17.6c.1 1.1 1 2.3 2.1 2.5l19.6 3.7z" opacity=".4"/><path d="M66.8 248.1c.9-.3 1.6-1.5 1.5-2.5l-2-16.6c-.1-.9-1-1.8-1.9-1.9L49.6 225c-.9-.1-2 .4-2.5 1.2l-2.6 4.2-1.8 2.9-2.8 4.5c-.5.8-.5 2.1 0 2.8l8.5 12.5c.6.8 1.8 1.2 2.7.9l15.7-5.9z" opacity=".5"/></g><path d="M55.8 225.2c-.6-.5-1.7-.5-2.3 0l-11 8c-.6.5-1 1.4-.7 2.2l4.1 12.1c.3.8 1.2 1.5 2 1.5l4.4.2 3 .1 4.8.2c.9 0 1.8-.6 2.2-1.3l5.3-12.2c.3-.8 0-1.8-.6-2.3l-11.2-8.5z" class="st10"/><path fill="#7ab14e" d="M45.8 239.1c0 1.3.7 1.8 1.6 1.8.7 0 1.1-.1 1.4-.2l.1.7c-.3.1-.9.3-1.7.3-1.6-.1-2.4-1.1-2.3-2.7.1-1.5 1-2.7 2.5-2.7 1.6 0 2 1.5 2 2.5v.4l-3.6-.1zm2.7-.6c0-.6-.2-1.5-1.2-1.5-.9 0-1.4.8-1.5 1.5h2.7z"/><path fill="#eb6531" d="M50.3 240.5c.4.3 1 .5 1.6.5.9 0 1.5-.5 1.5-1.2s-.3-1.1-1.3-1.5c-1.1-.4-1.8-1.1-1.8-2.1 0-1.1 1-1.9 2.4-1.9.7 0 1.2.2 1.6.4l-.3.7c-.2-.1-.7-.4-1.3-.4-1 0-1.4.5-1.4 1 0 .7.4 1 1.4 1.4 1.2.5 1.8 1.1 1.8 2.2s-.9 2.1-2.6 2c-.7 0-1.4-.3-1.8-.5l.2-.6zm11.6-1.7v-3.1l-1 2.7-1.4 3.5h-.7l-1.1-3.5-.8-2.8-.2 3.2-.3 3.1h-.9l.7-7.2h1.2l1.1 3.5.7 2.5c.2-.7.5-1.5.8-2.4l1.4-3.5h1.2l.4 7.2h-.9l-.2-3.2z"/><path id="B_1_" d="M84 203.7h.2c.1 0 .1.1.1.1s.1.1.1.2v.2L77 263.4l-44.1-52.6 1.2-8.9c0-.1 0-.1.1-.2l.1-.1.1-.1h.2c-.2-.1 49.4 2.2 49.4 2.2z" class="st10"/><path fill="#15121b" d="m63.9 198.6-11.5-.3c-.5 0-.8-.4-.8-.8s.4-.8.8-.8l11.5.3c.4 0 .8.4.8.8s-.3.8-.8.8z"/><path fill="#60607f" d="M49.2 283.6c0-.9-.7-1.7-1.7-1.7s-1.8.7-1.8 1.6.7 1.7 1.7 1.7 1.8-.7 1.8-1.6z" opacity=".47"/><path id="C" d="M151.6 75.5s1.9-2.4 3.9-1.1c3 2-2.7 8.5-4.8 8.5-1.9 0-6.4-6-3.8-8.5 2.4-2.5 4.7 1.1 4.7 1.1z" class="st1"/><path id="D" d="M146.8 74.3c.4-.3.7-.6 1.1-.7-2.1 1.7.5 6.6 2.3 7.9 1.4.9 2.6.1 3.1-.3-1 1-2.1 1.6-2.8 1.6-1.9 0-6.3-6-3.7-8.5z" class="st2"/><path d="M151.6 75.5s1.2-1.6 2.8-1.5c-1.4.2-2.5 2-2.5 2l-.3-.5z" class="st56"/><path d="M60.2 43.2s.5-4.4 3.9-4.3c5.3.2 3.1 12.5.4 14.1-2.4 1.4-12.4-2.5-11-7.6 1.3-5 6.7-2.3 6.7-2.2z" class="st1"/><path d="M53.6 45.3c.2-.7.5-1.3.8-1.7-1.3 3.7 5.6 7.8 8.8 7.9 2.5.1 3.3-1.8 3.6-2.7-.5 2-1.3 3.6-2.2 4.1-2.4 1.5-12.4-2.5-11-7.6z" class="st2"/><path d="M60.2 43.2s.3-2.9 2.3-3.9c-1.6 1.4-1.5 4.3-1.5 4.3l-.8-.4z" class="st56"/><path id="C_1_" d="M85.1 71.3s1.9-2.4 3.9-1.1c3 2-2.7 8.5-4.8 8.5-1.9 0-6.4-6-3.8-8.5 2.5-2.4 4.7 1.1 4.7 1.1z" class="st1"/><path id="D_1_" d="M80.4 70.2c.4-.3.7-.6 1.1-.7-2.1 1.7.5 6.6 2.3 7.9 1.4.9 2.6.1 3.1-.3-1 1-2.1 1.6-2.8 1.6-1.9 0-6.3-6-3.7-8.5z" class="st2"/><path d="M85.1 71.3s1.2-1.6 2.8-1.5c-1.4.2-2.5 2-2.5 2l-.3-.5z" class="st56"/><path d="M142.2 7.4s1.3-1.7 2.6-.8c2.1 1.4-1.8 5.8-3.3 5.8-1.3 0-4.4-4.1-2.6-5.8 1.8-1.6 3.3.8 3.3.8z" class="st1"/><path d="M139 6.6c.2-.2.5-.4.7-.5-1.4 1.2.3 4.5 1.6 5.4 1 .6 1.8.1 2.1-.2-.7.7-1.4 1.1-1.9 1.1-1.3 0-4.3-4-2.5-5.8z" class="st2"/><path d="M142.2 7.4s.8-1.1 1.9-1c-1 .2-1.7 1.4-1.7 1.4l-.2-.4z" class="st56"/><path d="M73.7 33.7s.7-2 2.3-1.5c2.4.7-.1 6.1-1.5 6.5-1.3.4-5.4-2.6-4.1-4.8 1.2-2 3.3-.2 3.3-.2z" class="st1"/><path d="M70.4 33.9c.2-.3.4-.5.6-.7-1 1.5 1.6 4.2 3.1 4.7 1.1.3 1.7-.4 2-.8-.5.8-1 1.5-1.5 1.6-1.3.4-5.4-2.6-4.2-4.8z" class="st2"/><path d="M73.7 33.7s.5-1.3 1.5-1.5c-.9.4-1.2 1.8-1.2 1.8l-.3-.3z" class="st56"/><path d="M142 36.2c1.3-.1 2.7.3 2.9.9s-3 12.7-3.5 13.2-1.9-.2-2.9-.7 1.9-8.2 1.5-8.5c-.1-.1-.3-.1-.5-.2-.9-.2-1.3-1.2-.8-2 .9-1.1 2.1-2.6 3.3-2.7z" class="st1"/><path d="M140.4 46.7c.2-1.8 1-3.4 1.4-5.1.1-.2.1-.5 0-.7-.2-.5-.9-.6-1.3-.9-.6-.5-.4-1.6.1-2.2.4-.5.9-.9 1.3-1.5-1.2.1-2.4 1.6-3.2 2.8-.5.8-.1 1.8.8 2 .2.1.4.1.5.2.4.3-2.4 8-1.5 8.5.7.3 1.6.9 2.3.9-.4-1.3-.6-2.7-.4-4z" class="st2"/><path d="M82.6 43.6c-.3-.3-.5-.7-.5-1.1-.3-1.8 1.3-3.3 2.7-4.3 3.5-2.5 6.2.7 6.3 4.3s-1.4 4.8-1 5.4 2.9-1.5 3.8-1.2c1.9.8 1.5 3.7.2 4.7-1.4 1.2-3.8 1.8-5.6 1.1-1.6-.6-1.3-3.5-1.3-4.8.1-1.4 1.4-5.4-.3-6.3-.4-.2-1 0-1.3.3-.6.7-.5 1.8-1.3 2.3-.6.5-1.2.1-1.7-.4z" class="st5"/><path d="M90.8 50.1c-.5.2-1.2.3-1.6 0-.2-.2-.3-.5-.4-.8-.4-1.8.9-3.6.8-5.5 0-1.2-.7-2.4-1.7-3s-2.5-.4-3.3.4c-.4.4-.7 1-1 1.5-.2.3-.6.7-.9.8.4.5 1.1.8 1.7.5.8-.5.7-1.6 1.3-2.3.3-.4.9-.6 1.3-.3 1.7.9.4 4.9.3 6.3-.1 1.3-.3 4.2 1.3 4.8 1.7.7 4.2.1 5.6-1.1.8-.7 1.3-2.2 1-3.4-1.5.9-2.9 1.6-4.4 2.1z" class="st26"/><path d="M135.3 83.5c.2.1.5.1.6.3.2.4-.4.8-.8.8s-1.1 0-1.2.4c-.2.6.6 1 .9 1.5.4.7-.2 1.6-1 1.9s-1.6.2-2.4.3-1.7.5-1.9 1.3c-.1.6.2 1.3.7 1.7.7.6 1.6 1 2.5 1.2 1.2.3 2.5.5 3.7.1 1.2-.4 2.1-1.5 2.3-2.7s-.2-2.5-1.2-3.4c.9-.1 1.8-.5 2.5-1.1.4-.3.8-.8.9-1.3.1-.5-.1-1.1-.3-1.6-.8-1.5-2.4-2.1-4.1-2.2-.7-.1-1.7.1-2 .8-.4.7 0 1.7.8 2z" class="st36"/><path d="M132.8 90.3c.5-.3 1.1-.2 1.6-.4.9-.2 1.7-1 1.9-1.9s-.1-2-.7-2.6c1-.3 1.9-1 2.4-2-.3-.6-1.1-.7-1.7-.8-.6-.1-1.3-.1-1.8-.6 0 .6.3 1.2.9 1.5.2.1.5.1.6.3.2.4-.4.8-.8.8s-1.1 0-1.2.4c-.2.6.6 1 .9 1.5.4.7-.2 1.6-1 1.9s-1.6.2-2.4.3-1.7.5-1.9 1.3c-.1.6.2 1.3.7 1.7.6.5 1.3.8 2.1 1.1-.6-.8-.4-2 .4-2.5z" class="st35"/><path d="M140.3 25.8c0-.6-1-1.3-1.4-1.7l.5-.7c.3-.4.6-.8.7-1.2 0-.1.1-.2 0-.3 0-.1-.1-.2-.2-.3-.4-.4-1.2-1.3-1.8-1.3-.6 0-1.3 1-1.7 1.4l-.2.2-1.6-1c-.2-.1-.4-.2-.6-.2-.2 0-.3.2-.4.3-.4.4-.8.9-.7 1.4 0 .3.2.5.4.8l1 1.2-1 1.6c-.1.2-.2.4-.2.6 0 .2.2.3.3.4.4.4.9.8 1.4.7.3 0 .6-.2.8-.4l1-.8.7.6c.4.3.8.6 1.2.7.1 0 .2.1.3 0 .1 0 .2-.1.3-.2.3-.4 1.2-1.2 1.2-1.8z" class="st5"/><path d="M133.5 21c-.3.4-.6.8-.6 1.3 0 .3.2.5.4.8l1 1.2-1 1.6c-.1.2-.2.4-.2.6 0 .2.2.3.3.4.4.4.9.8 1.4.7.3 0 .6-.2.8-.4l1-.8.7.6c.4.3.8.6 1.2.7.1 0 .2.1.3 0 .1 0 .2-.1.3-.2.4-.4 1.3-1.2 1.3-1.8v-.1c-2.9-.4-5.5-2.1-6.9-4.6z" class="st5"/><path d="M99.7.8c-1 .4-2.1 1-2.5 1.3-2.7 1.7-5.1 3.8-7.7 5.6-1.4 1 .1 3.1 1.5 2.2l5-3.4c1.4-1 3-1.8 4.3-2.9.5-.4 1.5-1.2 1.4-2 0-1.1-1-1.1-2-.8z" class="st36"/><path id="E" d="M93.9.5c-.8-.8-2.2-.6-2.9.2-.7.8-.7 1.9 0 2.7.8.9 2.3.9 3.1 0 .3-.4.5-1 .5-1.5-.1-.6-.3-1-.7-1.4z" class="st36"/><path id="E_1_" d="M98.7 7.6c-.8-.8-2.2-.6-2.9.2-.7.8-.7 1.9 0 2.7.8.9 2.3.9 3.1 0 .3-.4.5-1 .5-1.5s-.3-1-.7-1.4z" class="st36"/><path d="M94.4 1.1c-.4.7-1.1 1.3-1.9 1.5-.7.1-1.4-.1-2-.5 0 .5.2.9.5 1.3.8.9 2.3.9 3.1 0 .3-.4.5-1 .5-1.5 0-.3-.1-.5-.2-.8zm3.5 8.2c-.5.3-1 .4-1.6.4-.4-.1-.8-.3-1-.6 0 .5.1 1.1.5 1.5.8.9 2.3.9 3.1 0 .3-.4.5-1 .5-1.5 0-.4-.2-.7-.4-1-.1.4-.6.9-1.1 1.2zm2.4-5.7c.5-.4 1.5-1.2 1.4-2 0-.2 0-.3-.1-.4l-6.1 4.2c-1.8 1.3-3.6 2.8-5.8 3l-.3-.7c-1.3 1 .2 3.1 1.6 2.1l5-3.4c1.4-.8 2.9-1.6 4.3-2.8z" class="st35"/><path d="M153.8 60.4c.4-.5.2-1.6.2-2.2l.9-.1c.5-.1.9-.1 1.4-.4.1 0 .2-.1.3-.2.1-.1.1-.2.1-.3 0-.6.1-1.8-.4-2.2-.4-.4-1.6-.2-2.2-.2h-.3l-.4-1.9c-.1-.2-.1-.5-.3-.6-.1-.1-.3-.1-.5-.1-.6 0-1.2.1-1.5.5-.2.2-.2.5-.3.8l-.1 1.5-1.9.4c-.2.1-.5.1-.6.3-.1.1-.1.3-.1.5 0 .5.1 1.2.5 1.5.2.2.6.2.8.3l1.2.1.1.9c.1.5.1.9.4 1.4.1.1.1.2.2.3.1.1.2.1.3.1.6 0 1.8.1 2.2-.4z" class="st6"/><path d="M152.3 52.3c-.5 0-1 .1-1.3.5-.2.2-.2.5-.3.8l-.1 1.5-1.9.4c-.2.1-.5.1-.6.3-.1.1-.1.3-.1.5 0 .5.1 1.2.5 1.5.2.2.6.2.8.3l1.2.1.1.9c.1.5.1.9.4 1.4.1.1.1.2.2.3.1.1.2.1.3.1.6 0 1.8.1 2.2-.4v-.1c-1.5-2.3-2.1-5.4-1.4-8.1z" class="st7"/></svg>