<svg width="20" height="15" viewBox="0 0 20 15" fill="none" xmlns="http://www.w3.org/2000/svg">
<g opacity="0.8">
<path d="M18.7834 2.84992C18.6844 2.45443 18.4828 2.09206 18.1989 1.79942C17.915 1.50679 17.559 1.29424 17.1667 1.18325C15.7334 0.833252 10 0.833252 10 0.833252C10 0.833252 4.2667 0.833252 2.83336 1.21659C2.44107 1.32757 2.08501 1.54012 1.80115 1.83276C1.51729 2.1254 1.31569 2.48776 1.2167 2.88325C0.954374 4.33788 0.826059 5.81351 0.833362 7.29159C0.824012 8.78079 0.952335 10.2677 1.2167 11.7333C1.32583 12.1165 1.53195 12.465 1.81515 12.7453C2.09835 13.0256 2.44905 13.2281 2.83336 13.3333C4.2667 13.7166 10 13.7166 10 13.7166C10 13.7166 15.7334 13.7166 17.1667 13.3333C17.559 13.2223 17.915 13.0097 18.1989 12.7171C18.4828 12.4244 18.6844 12.0621 18.7834 11.6666C19.0437 10.2229 19.172 8.75853 19.1667 7.29159C19.176 5.80238 19.0477 4.3155 18.7834 2.84992V2.84992Z" stroke="white" stroke-width="1.5" stroke-linecap="round" stroke-linejoin="round"/>
<path d="M8.125 10.0167L12.9167 7.29165L8.125 4.56665V10.0167Z" stroke="white" stroke-width="1.5" stroke-linecap="round" stroke-linejoin="round"/>
</g>
</svg>
